<?xml version="1.0" encoding="utf-8"?>
<!-- Generator: Adobe Illustrator 16.0.0, SVG Export Plug-In . SVG Version: 6.00 Build 0)  -->
<!DOCTYPE svg PUBLIC "-//W3C//DTD SVG 1.0//EN" "http://www.w3.org/TR/2001/REC-SVG-20010904/DTD/svg10.dtd">
<svg version="1.0" id="Layer_1" xmlns="http://www.w3.org/2000/svg" xmlns:xlink="http://www.w3.org/1999/xlink" x="0px" y="0px"
	 width="304px" height="780px" viewBox="0.75 -0.255 304 780" enable-background="new 0.75 -0.255 304 780" xml:space="preserve">
<g>
	<g enable-background="new    ">
		<path fill="#CB3D1A" d="M79.332,750.779c0,8.547-3.068,15.561-8.547,21.039c-7.891,7.889-17.643,7.67-31.119,7.67
			c-13.479,0-23.229,0.219-31.119-7.67C3.067,766.339,0,759.326,0,750.779c0-14.572,8.328-25.969,24.653-28.707v15.449
			c-6.245,1.533-11.067,5.479-11.067,13.148c0,4.162,1.535,7.561,4.055,9.752c3.287,2.959,7.013,3.836,22.023,3.836
			c15.011,0,18.738-0.877,22.025-3.836c2.52-2.191,4.055-5.59,4.055-9.752c0-7.672-4.822-11.615-11.066-13.148v-15.449
			C71.003,724.81,79.332,736.316,79.332,750.779z"/>
	</g>
	<g enable-background="new    ">
		<path fill="#CB3D1A" d="M70.785,661.226c5.479,5.479,8.547,12.162,8.547,21.037s-3.068,15.67-8.547,21.146
			c-7.891,7.891-17.643,7.67-31.119,7.67c-13.479,0-23.229,0.221-31.119-7.67C3.067,697.931,0,691.138,0,682.263
			s3.067-15.561,8.547-21.037c7.889-7.891,17.641-7.781,31.119-7.781C53.144,653.445,62.896,653.337,70.785,661.226z
			 M17.752,672.511c-2.521,2.191-4.164,5.588-4.164,9.752s1.644,7.67,4.164,9.861c3.287,2.957,6.902,3.727,21.914,3.727
			c15.011,0,18.626-0.77,21.916-3.727c2.52-2.191,4.164-5.697,4.164-9.861s-1.645-7.561-4.164-9.752
			c-3.287-2.959-6.902-3.836-21.916-3.836C24.654,668.675,21.039,669.552,17.752,672.511z"/>
	</g>
	<g enable-background="new    ">
		<path fill="#CB3D1A" d="M78.673,592.142l-47.882,30.898h47.882v15.23H0.658v-13.588l47.773-30.898H0.658v-15.23h78.015V592.142z"
			/>
	</g>
	<g enable-background="new    ">
		<path fill="#CB3D1A" d="M78.673,514.888l-47.882,30.898h47.882v15.23H0.658v-13.586l47.773-30.9H0.658V501.3h78.015V514.888z"/>
	</g>
	<g enable-background="new    ">
		<path fill="#CB3D1A" d="M78.673,484.353H0.658v-51.389h13.588v36.158h18.299v-30.791H46.13v30.791h18.957v-36.158h13.586V484.353
			L78.673,484.353z"/>
	</g>
	<g enable-background="new    ">
		<path fill="#CB3D1A" d="M79.332,393.408c0,8.547-3.068,15.561-8.547,21.039c-7.891,7.889-17.643,7.67-31.119,7.67
			c-13.479,0-23.229,0.219-31.119-7.67C3.067,408.968,0,401.955,0,393.408c0-14.573,8.328-25.969,24.653-28.708v15.45
			c-6.245,1.534-11.067,5.479-11.067,13.15c0,4.162,1.535,7.561,4.055,9.752c3.287,2.957,7.013,3.834,22.023,3.834
			c15.011,0,18.738-0.877,22.025-3.834c2.52-2.191,4.055-5.59,4.055-9.752c0-7.671-4.822-11.616-11.066-13.15V364.7
			C71.003,367.439,79.332,378.944,79.332,393.408z"/>
	</g>
	<g enable-background="new    ">
		<path fill="#CB3D1A" d="M14.246,320.682h64.427v15.23H14.246v20.381H0.658v-55.992h13.588V320.682z"/>
	</g>
	<g enable-background="new    ">
		<path fill="#CB3D1A" d="M78.669,220.872H46.017v26.407h32.652v15.23H0.654v-15.23h31.887v-26.407H0.654v-15.231h78.015V220.872z"
			/>
	</g>
	<g enable-background="new    ">
		<path fill="#CB3D1A" d="M78.669,188.205H0.654v-51.39h13.588v36.159h18.299v-30.79h13.585v30.79h18.957v-36.159h13.586V188.205
			L78.669,188.205z"/>
	</g>
	<g enable-background="new    ">
		<path fill="#CB3D1A" d="M78.669,81.325L47.55,96.555v10.958h31.119v15.23H0.654v-30.57c0-15.888,10.848-25.312,23.887-25.312
			c10.959,0,17.751,6.684,20.492,14.245l33.639-17.422v17.641H78.669z M14.242,93.159v14.354h20.6V93.159
			c0-6.684-4.273-11.067-10.301-11.067C18.515,82.092,14.242,86.475,14.242,93.159z"/>
	</g>
	<g enable-background="new    ">
		<path fill="#CB3D1A" d="M78.669,51.388H0.654V-0.001h13.588v36.159h18.299V5.368h13.585v30.79h18.957V-0.001h13.586V51.388
			L78.669,51.388z"/>
	</g>
</g>
<g>
	<g enable-background="new    ">
		<path fill="#F4AA2A" d="M304.75,750.779c0,8.547-3.068,15.561-8.547,21.039c-7.891,7.889-17.643,7.67-31.119,7.67
			c-13.479,0-23.229,0.219-31.119-7.67c-5.479-5.479-8.547-12.492-8.547-21.039c0-14.572,8.328-25.969,24.654-28.707v15.449
			c-6.246,1.533-11.068,5.479-11.068,13.148c0,4.162,1.535,7.561,4.055,9.752c3.287,2.959,7.014,3.836,22.023,3.836
			c15.012,0,18.738-0.877,22.025-3.836c2.52-2.191,4.055-5.59,4.055-9.752c0-7.672-4.822-11.615-11.066-13.148v-15.449
			C296.421,724.81,304.75,736.316,304.75,750.779z"/>
	</g>
	<g enable-background="new    ">
		<path fill="#F4AA2A" d="M296.203,661.226c5.479,5.479,8.547,12.162,8.547,21.037s-3.068,15.67-8.547,21.146
			c-7.891,7.891-17.643,7.67-31.119,7.67c-13.479,0-23.229,0.221-31.119-7.67c-5.479-5.479-8.547-12.271-8.547-21.146
			s3.068-15.561,8.547-21.037c7.889-7.891,17.641-7.781,31.119-7.781S288.314,653.337,296.203,661.226z M243.169,672.511
			c-2.52,2.191-4.164,5.588-4.164,9.752s1.645,7.67,4.164,9.861c3.287,2.957,6.902,3.727,21.914,3.727s18.627-0.77,21.916-3.727
			c2.52-2.191,4.164-5.697,4.164-9.861s-1.645-7.561-4.164-9.752c-3.287-2.959-6.902-3.836-21.916-3.836
			C250.072,668.675,246.457,669.552,243.169,672.511z"/>
	</g>
	<g enable-background="new    ">
		<path fill="#F4AA2A" d="M304.091,592.142l-47.883,30.898h47.883v15.23h-78.016v-13.588l47.773-30.898h-47.773v-15.23h78.016
			V592.142z"/>
	</g>
	<g enable-background="new    ">
		<path fill="#F4AA2A" d="M304.091,514.888l-47.883,30.898h47.883v15.23h-78.016v-13.586l47.773-30.9h-47.773V501.3h78.016V514.888z
			"/>
	</g>
	<g enable-background="new    ">
		<path fill="#F4AA2A" d="M304.091,484.353h-78.016v-51.389h13.588v36.158h18.299v-30.791h13.586v30.791h18.957v-36.158h13.586
			V484.353L304.091,484.353z"/>
	</g>
	<g enable-background="new    ">
		<path fill="#F4AA2A" d="M304.75,393.408c0,8.547-3.068,15.561-8.547,21.039c-7.891,7.889-17.643,7.67-31.119,7.67
			c-13.479,0-23.229,0.219-31.119-7.67c-5.479-5.479-8.547-12.492-8.547-21.039c0-14.573,8.328-25.969,24.654-28.708v15.45
			c-6.246,1.534-11.068,5.479-11.068,13.15c0,4.162,1.535,7.561,4.055,9.752c3.287,2.957,7.014,3.834,22.023,3.834
			c15.012,0,18.738-0.877,22.025-3.834c2.52-2.191,4.055-5.59,4.055-9.752c0-7.671-4.822-11.616-11.066-13.15V364.7
			C296.421,367.439,304.75,378.944,304.75,393.408z"/>
	</g>
	<g enable-background="new    ">
		<path fill="#F4AA2A" d="M239.664,320.682h64.428v15.23h-64.428v20.381h-13.588v-55.992h13.588V320.682z"/>
	</g>
	<g enable-background="new    ">
		<path fill="#F4AA2A" d="M304.087,220.872h-32.652v26.407h32.652v15.23h-78.016v-15.23h31.887v-26.407h-31.887v-15.231h78.016
			V220.872z"/>
	</g>
	<g enable-background="new    ">
		<path fill="#F4AA2A" d="M304.087,188.205h-78.016v-51.39h13.588v36.159h18.299v-30.79h13.586v30.79h18.957v-36.159h13.586V188.205
			L304.087,188.205z"/>
	</g>
	<g enable-background="new    ">
		<path fill="#F4AA2A" d="M304.087,81.325l-31.119,15.23v10.958h31.119v15.23h-78.016v-30.57c0-15.888,10.848-25.312,23.887-25.312
			c10.959,0,17.752,6.684,20.492,14.245l33.639-17.422v17.641H304.087z M239.66,93.159v14.354h20.6V93.159
			c0-6.684-4.273-11.067-10.301-11.067C243.933,82.092,239.66,86.475,239.66,93.159z"/>
	</g>
	<g enable-background="new    ">
		<path fill="#F4AA2A" d="M304.087,51.388h-78.016V-0.001h13.588v36.159h18.299V5.368h13.586v30.79h18.957V-0.001h13.586V51.388
			L304.087,51.388z"/>
	</g>
</g>
</svg>
