<?xml version="1.0" encoding="utf-8"?>
<!-- Generator: Adobe Illustrator 16.0.0, SVG Export Plug-In . SVG Version: 6.00 Build 0)  -->
<!DOCTYPE svg PUBLIC "-//W3C//DTD SVG 1.0//EN" "http://www.w3.org/TR/2001/REC-SVG-20010904/DTD/svg10.dtd">
<svg version="1.0" id="Layer_1" xmlns="http://www.w3.org/2000/svg" xmlns:xlink="http://www.w3.org/1999/xlink" x="0px" y="0px"
	 width="31.105px" height="17px" viewBox="-32.5 -1 31.105 17" enable-background="new -32.5 -1 31.105 17" xml:space="preserve">
<g>
	<path fill="#B2B5B8" d="M-29.952,4.817l4.89-2.408l5.013,2.408v4.974h-9.903V4.817z M-25.062,0.473L-32.5,4.23v1.922h0.92v5.264
		h13.162V6.155h0.918V4.232L-25.062,0.473z"/>
	<g>
		<g>
			<defs>
				<rect id="SVGID_1_" x="-32.5" y="0.473" width="15" height="14.527"/>
			</defs>
			<clipPath id="SVGID_2_">
				<use xlink:href="#SVGID_1_"  overflow="visible"/>
			</clipPath>
			<path clip-path="url(#SVGID_2_)" fill="#B2B5B8" d="M-22.555,5.025c0.008,0.025,0,1.596,0,1.596h-4.974V5.025H-22.555z"/>
		</g>
	</g>
	<rect x="-27.529" y="7.199" fill="#B2B5B8" width="4.974" height="1.629"/>
	<polygon fill="#B2B5B8" points="-31.584,12.445 -31.584,13.467 -30.85,13.467 -30.85,13.282 -31.385,13.282 -31.385,13.02 
		-30.914,13.02 -30.914,12.843 -31.385,12.843 -31.385,12.624 -30.873,12.624 -30.873,12.445 	"/>
	<g>
		<g>
			<defs>
				<rect id="SVGID_3_" x="-32.5" y="0.473" width="15" height="14.527"/>
			</defs>
			<clipPath id="SVGID_4_">
				<use xlink:href="#SVGID_3_"  overflow="visible"/>
			</clipPath>
			<path clip-path="url(#SVGID_4_)" fill="#B2B5B8" d="M-29.822,12.538c-0.086-0.083-0.191-0.122-0.316-0.122
				c-0.123,0-0.229,0.039-0.312,0.117c-0.103,0.096-0.154,0.238-0.154,0.425s0.049,0.327,0.149,0.423
				c0.083,0.08,0.187,0.119,0.314,0.119c0.061,0,0.113-0.007,0.154-0.023c0.027-0.01,0.057-0.025,0.094-0.047l0.118,0.117
				l0.105-0.117l-0.113-0.111c0.032-0.039,0.059-0.088,0.076-0.146c0.022-0.062,0.032-0.138,0.032-0.229
				C-29.672,12.767-29.721,12.634-29.822,12.538 M-30.3,13.256c-0.069-0.062-0.103-0.162-0.103-0.303c0-0.12,0.024-0.211,0.071-0.27
				c0.046-0.062,0.113-0.092,0.191-0.092c0.086,0,0.149,0.032,0.196,0.094c0.044,0.064,0.066,0.152,0.066,0.266
				c0,0.049-0.005,0.093-0.015,0.13c-0.008,0.024-0.018,0.054-0.032,0.089l-0.098-0.099l-0.105,0.115l0.098,0.099
				c-0.02,0.007-0.034,0.014-0.047,0.017c-0.022,0.005-0.044,0.01-0.066,0.01C-30.202,13.314-30.256,13.295-30.3,13.256"/>
		</g>
		<g>
			<defs>
				<rect id="SVGID_5_" x="-32.5" y="0.473" width="15" height="14.527"/>
			</defs>
			<clipPath id="SVGID_6_">
				<use xlink:href="#SVGID_5_"  overflow="visible"/>
			</clipPath>
			<path clip-path="url(#SVGID_6_)" fill="#B2B5B8" d="M-29.348,13.326c0.061,0.111,0.174,0.167,0.344,0.167
				c0.167,0,0.282-0.056,0.341-0.167c0.032-0.061,0.047-0.145,0.047-0.253v-0.628h-0.206v0.628c0,0.071-0.007,0.12-0.025,0.152
				c-0.024,0.06-0.079,0.086-0.159,0.086c-0.083,0-0.138-0.026-0.162-0.086c-0.017-0.032-0.025-0.083-0.025-0.152v-0.628h-0.206
				v0.628C-29.395,13.182-29.38,13.266-29.348,13.326"/>
		</g>
	</g>
	<path fill="#B2B5B8" d="M-27.909,12.678l0.123,0.403h-0.245L-27.909,12.678z M-28.02,12.445l-0.346,1.023h0.213l0.066-0.211h0.358
		l0.062,0.211h0.221l-0.344-1.023H-28.02z"/>
	<polygon fill="#B2B5B8" points="-27.2,12.445 -27.2,13.467 -26.517,13.467 -26.517,13.282 -26.999,13.282 -26.999,12.445 	"/>
	<polygon fill="#B2B5B8" points="-24.732,12.445 -24.732,12.836 -25.113,12.836 -25.113,12.445 -25.314,12.445 -25.314,13.467 
		-25.113,13.467 -25.113,13.01 -24.732,13.01 -24.732,13.467 -24.531,13.467 -24.531,12.445 	"/>
	<g>
		<g>
			<defs>
				<rect id="SVGID_7_" x="-32.5" y="0.473" width="15" height="14.527"/>
			</defs>
			<clipPath id="SVGID_8_">
				<use xlink:href="#SVGID_7_"  overflow="visible"/>
			</clipPath>
			<path clip-path="url(#SVGID_8_)" fill="#B2B5B8" d="M-23.466,12.531c-0.073-0.079-0.179-0.121-0.319-0.121
				c-0.14,0-0.245,0.039-0.318,0.121c-0.099,0.096-0.147,0.235-0.147,0.422c0,0.184,0.049,0.324,0.147,0.422
				c0.073,0.079,0.179,0.118,0.318,0.118c0.141,0,0.246-0.039,0.319-0.118c0.096-0.096,0.146-0.238,0.146-0.422
				C-23.32,12.767-23.37,12.627-23.466,12.531 M-23.979,13.221c-0.047-0.062-0.071-0.152-0.071-0.266
				c0-0.115,0.024-0.203,0.071-0.265c0.047-0.063,0.113-0.096,0.191-0.096c0.081,0,0.143,0.032,0.191,0.096
				c0.047,0.063,0.071,0.152,0.071,0.265c0,0.116-0.024,0.204-0.071,0.266s-0.11,0.094-0.191,0.094
				C-23.865,13.314-23.93,13.282-23.979,13.221"/>
		</g>
		<g>
			<defs>
				<rect id="SVGID_9_" x="-32.5" y="0.473" width="15" height="14.527"/>
			</defs>
			<clipPath id="SVGID_10_">
				<use xlink:href="#SVGID_9_"  overflow="visible"/>
			</clipPath>
			<path clip-path="url(#SVGID_10_)" fill="#B2B5B8" d="M-22.994,13.326c0.061,0.111,0.174,0.167,0.344,0.167
				c0.167,0,0.282-0.056,0.341-0.167c0.032-0.061,0.047-0.145,0.047-0.253v-0.628h-0.206v0.628c0,0.071-0.008,0.12-0.025,0.152
				c-0.023,0.06-0.078,0.086-0.158,0.086c-0.084,0-0.139-0.026-0.162-0.086c-0.018-0.032-0.025-0.083-0.025-0.152v-0.628h-0.206
				v0.628C-23.043,13.182-23.026,13.266-22.994,13.326"/>
		</g>
		<g>
			<defs>
				<rect id="SVGID_11_" x="-32.5" y="0.473" width="15" height="14.527"/>
			</defs>
			<clipPath id="SVGID_12_">
				<use xlink:href="#SVGID_11_"  overflow="visible"/>
			</clipPath>
			<path clip-path="url(#SVGID_12_)" fill="#B2B5B8" d="M-21.885,13.402c0.071,0.062,0.172,0.091,0.3,0.091
				c0.122,0,0.218-0.029,0.287-0.093c0.069-0.062,0.101-0.141,0.101-0.233c0-0.091-0.027-0.159-0.086-0.209
				c-0.037-0.032-0.094-0.056-0.167-0.073l-0.167-0.042c-0.063-0.017-0.105-0.029-0.125-0.044c-0.031-0.018-0.047-0.045-0.047-0.081
				c0-0.04,0.018-0.071,0.047-0.094c0.031-0.022,0.074-0.034,0.125-0.034c0.047,0,0.086,0.01,0.118,0.024
				c0.046,0.024,0.071,0.071,0.076,0.13h0.194c-0.003-0.107-0.043-0.191-0.113-0.248c-0.071-0.057-0.16-0.086-0.263-0.086
				c-0.123,0-0.214,0.029-0.278,0.092c-0.062,0.061-0.096,0.137-0.096,0.229c0,0.1,0.033,0.174,0.099,0.221
				c0.04,0.026,0.108,0.054,0.209,0.078l0.103,0.024c0.062,0.015,0.104,0.03,0.133,0.047c0.027,0.02,0.042,0.044,0.042,0.079
				c0,0.059-0.029,0.096-0.086,0.117c-0.029,0.01-0.069,0.018-0.118,0.018c-0.08,0-0.137-0.022-0.169-0.064
				c-0.021-0.024-0.03-0.059-0.037-0.105h-0.188C-21.992,13.258-21.956,13.342-21.885,13.402"/>
		</g>
	</g>
	<rect x="-20.939" y="12.445" fill="#B2B5B8" width="0.201" height="1.023"/>
	<polygon fill="#B2B5B8" points="-19.83,12.445 -19.83,13.156 -20.215,12.445 -20.429,12.445 -20.429,13.467 -20.237,13.467 
		-20.237,12.742 -19.842,13.467 -19.641,13.467 -19.641,12.445 	"/>
	<g>
		<g>
			<defs>
				<rect id="SVGID_13_" x="-32.5" y="0.473" width="15" height="14.527"/>
			</defs>
			<clipPath id="SVGID_14_">
				<use xlink:href="#SVGID_13_"  overflow="visible"/>
			</clipPath>
			<path clip-path="url(#SVGID_14_)" fill="#B2B5B8" d="M-18.604,12.516c-0.073-0.066-0.175-0.098-0.298-0.098
				c-0.142,0-0.258,0.049-0.344,0.15c-0.086,0.098-0.129,0.232-0.129,0.396c0,0.165,0.041,0.293,0.127,0.387
				c0.081,0.096,0.189,0.142,0.316,0.142c0.079,0,0.143-0.017,0.197-0.052c0.031-0.02,0.066-0.054,0.105-0.103l0.02,0.128h0.135
				v-0.548h-0.4v0.169h0.224c-0.01,0.066-0.036,0.121-0.081,0.162c-0.044,0.042-0.098,0.062-0.167,0.062
				c-0.071,0-0.132-0.024-0.187-0.079c-0.055-0.051-0.081-0.142-0.081-0.265c0-0.122,0.024-0.218,0.073-0.282
				c0.05-0.064,0.115-0.094,0.191-0.094c0.043,0,0.079,0.008,0.113,0.025c0.059,0.027,0.096,0.076,0.113,0.145h0.199
				C-18.486,12.666-18.529,12.582-18.604,12.516"/>
		</g>
		<g>
			<defs>
				<rect id="SVGID_15_" x="-32.5" y="0.473" width="15" height="14.527"/>
			</defs>
			<clipPath id="SVGID_16_">
				<use xlink:href="#SVGID_15_"  overflow="visible"/>
			</clipPath>
			<path clip-path="url(#SVGID_16_)" fill="#B2B5B8" d="M-30.843,14.038c-0.074-0.081-0.179-0.12-0.319-0.12
				c-0.14,0-0.246,0.039-0.319,0.12c-0.099,0.094-0.147,0.233-0.147,0.423c0,0.184,0.049,0.324,0.147,0.422
				C-31.408,14.961-31.302,15-31.162,15c0.14,0,0.246-0.039,0.319-0.117c0.096-0.096,0.145-0.238,0.145-0.422
				C-30.696,14.271-30.745,14.132-30.843,14.038 M-31.354,14.726c-0.047-0.062-0.071-0.152-0.071-0.265
				c0-0.115,0.024-0.204,0.071-0.266c0.047-0.063,0.113-0.096,0.191-0.096s0.143,0.032,0.191,0.096
				c0.047,0.064,0.071,0.152,0.071,0.266c0,0.115-0.024,0.203-0.071,0.265c-0.046,0.062-0.11,0.093-0.191,0.093
				S-31.307,14.787-31.354,14.726"/>
		</g>
		<g>
			<defs>
				<rect id="SVGID_17_" x="-32.5" y="0.473" width="15" height="14.527"/>
			</defs>
			<clipPath id="SVGID_18_">
				<use xlink:href="#SVGID_17_"  overflow="visible"/>
			</clipPath>
			<path clip-path="url(#SVGID_18_)" fill="#B2B5B8" d="M-29.529,14.028c-0.059-0.052-0.135-0.079-0.233-0.079h-0.422v1.024h0.202
				v-0.368h0.206c0.108,0,0.191-0.024,0.248-0.074c0.056-0.049,0.086-0.135,0.086-0.255C-29.443,14.161-29.473,14.08-29.529,14.028
				 M-29.684,14.389c-0.027,0.025-0.064,0.037-0.113,0.037h-0.189v-0.299h0.189c0.046,0,0.086,0.01,0.113,0.034
				c0.027,0.022,0.039,0.062,0.039,0.112C-29.643,14.328-29.657,14.365-29.684,14.389"/>
		</g>
		<g>
			<defs>
				<rect id="SVGID_19_" x="-32.5" y="0.473" width="15" height="14.527"/>
			</defs>
			<clipPath id="SVGID_20_">
				<use xlink:href="#SVGID_19_"  overflow="visible"/>
			</clipPath>
			<path clip-path="url(#SVGID_20_)" fill="#B2B5B8" d="M-28.277,14.028c-0.059-0.052-0.135-0.079-0.233-0.079h-0.422v1.024h0.202
				v-0.368h0.206c0.108,0,0.191-0.024,0.248-0.074c0.057-0.049,0.086-0.135,0.086-0.255C-28.191,14.161-28.221,14.08-28.277,14.028
				 M-28.432,14.389c-0.027,0.025-0.064,0.037-0.113,0.037h-0.189v-0.299h0.189c0.046,0,0.086,0.01,0.113,0.034
				c0.027,0.022,0.04,0.062,0.04,0.112C-28.393,14.328-28.405,14.365-28.432,14.389"/>
		</g>
		<g>
			<defs>
				<rect id="SVGID_21_" x="-32.5" y="0.473" width="15" height="14.527"/>
			</defs>
			<clipPath id="SVGID_22_">
				<use xlink:href="#SVGID_21_"  overflow="visible"/>
			</clipPath>
			<path clip-path="url(#SVGID_22_)" fill="#B2B5B8" d="M-26.942,14.038c-0.071-0.081-0.179-0.12-0.317-0.12
				c-0.14,0-0.245,0.039-0.319,0.12c-0.098,0.094-0.147,0.233-0.147,0.423c0,0.184,0.049,0.324,0.147,0.422
				C-27.504,14.961-27.398,15-27.259,15c0.14,0,0.246-0.039,0.317-0.117c0.098-0.096,0.147-0.238,0.147-0.422
				C-26.794,14.271-26.844,14.132-26.942,14.038 M-27.45,14.726c-0.046-0.062-0.071-0.152-0.071-0.265
				c0-0.115,0.025-0.204,0.071-0.266c0.047-0.063,0.113-0.096,0.191-0.096c0.081,0,0.143,0.032,0.192,0.096
				c0.046,0.064,0.071,0.152,0.071,0.266c0,0.115-0.024,0.203-0.071,0.265c-0.047,0.062-0.111,0.093-0.192,0.093
				S-27.403,14.787-27.45,14.726"/>
		</g>
		<g>
			<defs>
				<rect id="SVGID_23_" x="-32.5" y="0.473" width="15" height="14.527"/>
			</defs>
			<clipPath id="SVGID_24_">
				<use xlink:href="#SVGID_23_"  overflow="visible"/>
			</clipPath>
			<path clip-path="url(#SVGID_24_)" fill="#B2B5B8" d="M-26.284,13.947v1.023h0.199v-0.399h0.211c0.059,0,0.101,0.01,0.12,0.032
				c0.022,0.021,0.035,0.066,0.035,0.129v0.096c0,0.03,0.002,0.06,0.007,0.089c0.002,0.015,0.007,0.032,0.012,0.054h0.224v-0.023
				c-0.02-0.013-0.032-0.033-0.037-0.06c-0.002-0.017-0.005-0.046-0.005-0.096v-0.069c0-0.07-0.01-0.125-0.027-0.159
				c-0.02-0.034-0.052-0.062-0.096-0.081c0.054-0.02,0.093-0.051,0.115-0.098s0.034-0.096,0.034-0.143
				c0-0.039-0.007-0.076-0.02-0.108s-0.029-0.062-0.049-0.085c-0.025-0.033-0.057-0.055-0.093-0.072
				c-0.037-0.017-0.088-0.024-0.157-0.027h-0.474V13.947z M-25.749,14.145c0.04,0.021,0.059,0.062,0.059,0.125
				c0,0.057-0.02,0.096-0.061,0.115c-0.022,0.01-0.057,0.018-0.104,0.018h-0.23v-0.275h0.235
				C-25.805,14.127-25.771,14.132-25.749,14.145"/>
		</g>
	</g>
	<polygon fill="#B2B5B8" points="-25.042,13.949 -25.042,14.129 -24.752,14.129 -24.752,14.971 -24.546,14.971 -24.546,14.129 
		-24.256,14.129 -24.256,13.949 	"/>
	<g>
		<g>
			<defs>
				<rect id="SVGID_25_" x="-32.5" y="0.473" width="15" height="14.527"/>
			</defs>
			<clipPath id="SVGID_26_">
				<use xlink:href="#SVGID_25_"  overflow="visible"/>
			</clipPath>
			<path clip-path="url(#SVGID_26_)" fill="#B2B5B8" d="M-23.738,14.831c0.062,0.11,0.174,0.167,0.344,0.167
				c0.167,0,0.282-0.057,0.342-0.167c0.031-0.062,0.047-0.145,0.047-0.253v-0.629h-0.207v0.629c0,0.071-0.008,0.121-0.024,0.152
				c-0.024,0.059-0.079,0.086-0.159,0.086c-0.084,0-0.138-0.027-0.162-0.086c-0.018-0.031-0.025-0.084-0.025-0.152v-0.629h-0.205
				v0.629C-23.787,14.687-23.77,14.77-23.738,14.831"/>
		</g>
	</g>
	<polygon fill="#B2B5B8" points="-21.865,13.949 -21.865,14.662 -22.253,13.949 -22.464,13.949 -22.464,14.971 -22.275,14.971 
		-22.275,14.244 -21.88,14.971 -21.676,14.971 -21.676,13.949 	"/>
	<rect x="-21.152" y="13.949" fill="#B2B5B8" width="0.201" height="1.024"/>
	<polygon fill="#B2B5B8" points="-20.492,13.949 -20.492,14.129 -20.201,14.129 -20.201,14.971 -19.996,14.971 -19.996,14.129 
		-19.705,14.129 -19.705,13.949 	"/>
	<polygon fill="#B2B5B8" points="-18.681,13.949 -18.875,14.395 -19.076,13.949 -19.314,13.949 -18.98,14.586 -18.98,14.971 
		-18.776,14.971 -18.776,14.586 -18.453,13.949 	"/>
</g>
<g>
	<g>
		<path fill="#B1B4B7" d="M-9.016,0c0.726,0,1.331,0.605,1.331,1.331c0,0.726-0.605,1.331-1.331,1.331
			c-0.726,0-1.331-0.604-1.331-1.331C-10.347,0.605-9.742,0-9.016,0 M-10.468,7.137c-0.363-2.178-0.363-2.419-0.363-2.662
			c0-0.847,0.604-1.331,1.209-1.331c1.089,0,1.331,0.968,1.451,1.936v0.363h3.025c0,1.21-0.605,1.331-1.694,1.331
			c-0.483,0-0.847,0-1.21,0l0.242,1.572h4.234l2.057,5.444c0.121,0.241,0.121,0.362,0.121,0.483c0,0.12-0.121,0.241-0.484,0.241
			c-0.727,0-0.968-0.241-1.089-0.725l-1.331-3.75h-5.685L-10.468,7.137z M-4.541,10.887c-0.241,2.42-2.298,4.234-4.717,4.234
			c-2.661,0-4.718-2.178-4.718-4.839c-0.121-1.936,0.968-3.508,2.541-4.234l0.121,0.968c-1.089,0.605-1.814,1.814-1.814,3.266
			c0,2.177,1.693,3.871,3.871,3.871c1.936,0,3.508-1.452,3.75-3.267H-4.541z"/>
	</g>
</g>
</svg>
