<?xml version="1.0" encoding="utf-8"?>
<!-- Generator: Adobe Illustrator 16.0.0, SVG Export Plug-In . SVG Version: 6.00 Build 0)  -->
<!DOCTYPE svg PUBLIC "-//W3C//DTD SVG 1.0//EN" "http://www.w3.org/TR/2001/REC-SVG-20010904/DTD/svg10.dtd">
<svg version="1.0" id="Layer_1" xmlns="http://www.w3.org/2000/svg" xmlns:xlink="http://www.w3.org/1999/xlink" x="0px" y="0px"
	 width="15px" height="35px" viewBox="0 -10 15 35" enable-background="new 0 -10 15 35" xml:space="preserve">
<g>
	<path fill="#CB3D1A" d="M10.146,5H7.853l0,0H10.146L10.146,5z M15,5v-15H0V5h7.853v-5.559H6v-2.383h1.853v-1.147
		c0-1.676,1.235-3,2.823-3h1.854v2.294h-1.854c-0.176,0-0.44,0.265-0.44,0.706v1.147h2.294v2.295h-2.294V5H15z"/>
</g>
<g>
	<path fill="#F4AA2A" d="M10.146,25H7.854l0,0H10.146L10.146,25z M15,25V10H0v15h7.854v-5.559H6v-2.383h1.854v-1.146
		c0-1.677,1.234-3,2.822-3h1.854v2.294h-1.854c-0.176,0-0.44,0.265-0.44,0.706v1.146h2.294v2.295h-2.294V25H15z"/>
</g>
</svg>
