<?xml version="1.0" encoding="utf-8"?>
<!-- Generator: Adobe Illustrator 16.0.0, SVG Export Plug-In . SVG Version: 6.00 Build 0)  -->
<!DOCTYPE svg PUBLIC "-//W3C//DTD SVG 1.0//EN" "http://www.w3.org/TR/2001/REC-SVG-20010904/DTD/svg10.dtd">
<svg version="1.0" id="Layer_1" xmlns="http://www.w3.org/2000/svg" xmlns:xlink="http://www.w3.org/1999/xlink" x="0px" y="0px"
	 width="15px" height="35px" viewBox="0 -10 15 35" enable-background="new 0 -10 15 35" xml:space="preserve">
<g>
	<path fill="#CB3D1A" d="M13.235,2.706c0,0.353-0.265,0.618-0.618,0.618H2.206c-0.353,0-0.618-0.266-0.618-0.618v-6.353H3
		C2.912-3.206,2.824-2.765,2.824-2.324c0,2.47,2.118,4.5,4.676,4.5s4.676-2.029,4.676-4.5c0-0.441-0.088-0.882-0.176-1.323h1.235
		V2.706z M13.235-6.029c0,0.353-0.265,0.706-0.706,0.706h-1.676c-0.354,0-0.707-0.265-0.707-0.706v-1.588
		c0-0.353,0.266-0.706,0.707-0.706h1.676c0.354,0,0.706,0.265,0.706,0.706V-6.029z M10.5-2.5c0,1.588-1.324,2.912-3,2.912
		c-1.676,0-3-1.324-3-2.912c0-1.588,1.324-2.912,3-2.912C9.176-5.412,10.5-4.176,10.5-2.5 M15-10H0V5h15V-10z"/>
</g>
<g>
	<path fill="#F4AA2A" d="M13.235,22.706c0,0.353-0.265,0.618-0.618,0.618H2.206c-0.353,0-0.618-0.266-0.618-0.618v-6.353H3
		c-0.088,0.44-0.176,0.882-0.176,1.322c0,2.471,2.118,4.5,4.676,4.5s4.676-2.029,4.676-4.5c0-0.44-0.088-0.882-0.176-1.322h1.235
		V22.706z M13.235,13.971c0,0.354-0.265,0.705-0.706,0.705h-1.676c-0.354,0-0.707-0.264-0.707-0.705v-1.588
		c0-0.354,0.266-0.707,0.707-0.707h1.676c0.354,0,0.706,0.266,0.706,0.707V13.971z M10.5,17.5c0,1.588-1.324,2.912-3,2.912
		c-1.676,0-3-1.324-3-2.912s1.324-2.912,3-2.912C9.176,14.588,10.5,15.824,10.5,17.5 M15,10H0v15h15V10z"/>
</g>
</svg>
