<?xml version="1.0" encoding="utf-8"?>
<!-- Generator: Adobe Illustrator 16.0.0, SVG Export Plug-In . SVG Version: 6.00 Build 0)  -->
<!DOCTYPE svg PUBLIC "-//W3C//DTD SVG 1.0//EN" "http://www.w3.org/TR/2001/REC-SVG-20010904/DTD/svg10.dtd">
<svg version="1.0" id="Layer_1" xmlns="http://www.w3.org/2000/svg" xmlns:xlink="http://www.w3.org/1999/xlink" x="0px" y="0px"
	 width="415px" height="81px" viewBox="-167 167 415 81" enable-background="new -167 167 415 81" xml:space="preserve">
<g>
	<path fill="#CC3C1A" d="M-126.706,182.887l-0.004,62.463h-14.897l0.005-62.465l-19.935-0.001l0.001-13.173l54.768,0.004
		l-0.001,13.173L-126.706,182.887z"/>
	<path fill="#CC3C1A" d="M-53.938,245.355l0.002-31.656l-25.83-0.002l-0.002,31.656h-14.897l0.005-75.638l14.897,0.001
		l-0.002,30.914l25.83,0.002l0.002-30.914l14.897,0.001l-0.005,75.637L-53.938,245.355z"/>
	<path fill="#CC3C1A" d="M22.157,245.361l-4.501-13.385l-27.115-0.002l-4.61,13.384h-15.541l27.764-75.636l11.683,0.001
		l27.862,75.639L22.157,245.361z M4.368,192.032l-9.648,27.514l18.971,0.001L4.368,192.032z"/>
	<path fill="#CC3C1A" d="M92.247,245.367l-30.221-46.426l-0.003,46.423l-14.897-0.001l0.005-75.637l13.291,0.001l30.221,46.32
		l0.003-46.317l14.898,0.001l-0.006,75.637H92.247z"/>
	<path fill="#CC3C1A" d="M167.698,245.372l-19.611-34.421l-9.86,11.687l-0.001,22.732l-14.897-0.001l0.005-75.638l14.897,0.001
		l-0.002,32.932l26.902-32.93l18.114,0.001l-25.297,30.062l27.113,45.575L167.698,245.372z"/>
	<path fill="#CC3C1A" d="M215.604,246.012c-11.574-0.001-20.362-2.444-27.864-9.985l9.646-9.562
		c4.822,4.781,11.359,6.375,18.435,6.376c8.787,0,13.504-3.293,13.505-9.349c0-2.656-0.75-4.887-2.356-6.373
		c-1.502-1.382-3.217-2.126-6.752-2.657l-9.218-1.273c-6.537-0.959-11.36-2.977-14.791-6.271c-3.644-3.612-5.465-8.499-5.464-14.873
		c0.001-13.492,10.076-22.945,26.581-22.944c10.505,0.001,18.112,2.551,24.65,8.819l-9.433,9.242
		c-4.822-4.569-10.61-5.207-15.647-5.208c-7.932,0-11.789,4.354-11.789,9.561c0,1.912,0.642,3.931,2.249,5.417
		c1.5,1.381,3.965,2.551,7.074,2.976l9.003,1.275c6.966,0.957,11.36,2.868,14.575,5.844c4.073,3.824,5.895,9.348,5.894,16.042
		C243.899,237.729,231.574,246.013,215.604,246.012z"/>
</g>
</svg>
