<?xml version="1.0" encoding="utf-8"?>
<!-- Generator: Adobe Illustrator 16.0.0, SVG Export Plug-In . SVG Version: 6.00 Build 0)  -->
<!DOCTYPE svg PUBLIC "-//W3C//DTD SVG 1.0//EN" "http://www.w3.org/TR/2001/REC-SVG-20010904/DTD/svg10.dtd">
<svg version="1.0" id="Layer_1" xmlns="http://www.w3.org/2000/svg" xmlns:xlink="http://www.w3.org/1999/xlink" x="0px" y="0px"
	 width="81px" height="415px" viewBox="0 0.25 81 415" enable-background="new 0 0.25 81 415" xml:space="preserve">
<g>
	<path fill="#CC3C1A" d="M16.536,375.434H79v14.897H16.536v19.935H3.363v-54.768h13.173V375.434z"/>
	<path fill="#CC3C1A" d="M79,302.661H47.343v25.83H79v14.897H3.363v-14.897h30.914v-25.83H3.363v-14.897H79V302.661z"/>
	<path fill="#CC3C1A" d="M79,226.567l-13.385,4.501v27.116L79,262.793v15.541L3.363,250.575v-11.683L79,211.026V226.567z
		 M25.672,244.359l27.514,9.646v-18.971L25.672,244.359z"/>
	<path fill="#CC3C1A" d="M79,156.476L32.577,186.7H79v14.897H3.363v-13.29l46.317-30.224H3.363v-14.898H79V156.476z"/>
	<path fill="#CC3C1A" d="M79,81.025l-34.419,19.613l11.686,9.86H79v14.897H3.363v-14.897h32.932L3.363,83.598V65.484l30.064,25.294
		L79,63.662V81.025z"/>
	<path fill="#CC3C1A" d="M79.637,33.119c0,11.575-2.443,20.363-9.985,27.866l-9.561-9.646c4.78-4.823,6.374-11.36,6.374-18.435
		c0-8.788-3.293-13.504-9.349-13.504c-2.656,0-4.887,0.75-6.374,2.357c-1.381,1.501-2.125,3.216-2.656,6.752l-1.274,9.217
		c-0.956,6.538-2.975,11.361-6.268,14.791c-3.612,3.644-8.499,5.466-14.872,5.466c-13.492,0-22.946-10.075-22.946-26.58
		c0-10.504,2.55-18.113,8.817-24.651l9.242,9.432c-4.568,4.823-5.206,10.611-5.206,15.648c0,7.931,4.355,11.789,9.561,11.789
		c1.912,0,3.931-0.643,5.417-2.25c1.381-1.5,2.55-3.965,2.975-7.074l1.275-9.003c0.956-6.967,2.868-11.361,5.843-14.576
		c3.824-4.073,9.348-5.895,16.041-5.895C71.351,4.824,79.637,17.149,79.637,33.119z"/>
</g>
</svg>
