<?xml version="1.0" encoding="utf-8"?>
<!-- Generator: Adobe Illustrator 16.0.0, SVG Export Plug-In . SVG Version: 6.00 Build 0)  -->
<!DOCTYPE svg PUBLIC "-//W3C//DTD SVG 1.0//EN" "http://www.w3.org/TR/2001/REC-SVG-20010904/DTD/svg10.dtd">
<svg version="1.0" id="Layer_1" xmlns="http://www.w3.org/2000/svg" xmlns:xlink="http://www.w3.org/1999/xlink" x="0px" y="0px"
	 width="15px" height="35px" viewBox="0 -10 15 35" enable-background="new 0 -10 15 35" xml:space="preserve">
<g>
	<path fill="#CB3D1A" d="M6.529-2.5v0.617c0,0.883,0.706,1.677,1.412,1.677h2.646c0.618,0,1.147,0.53,1.147,1.147
		s-0.529,1.146-1.147,1.146H7.941c-2.03,0-3.706-1.764-3.706-3.971v-4.059c0-0.617,0.529-1.147,1.147-1.147s1.147,0.53,1.147,1.147
		v1.147H10.5c0.617,0,1.146,0.529,1.146,1.147S11.117-2.5,10.5-2.5H6.529z M15-10H0V5h15V-10z"/>
</g>
<g>
	<path fill="#F4AA2A" d="M6.529,17.5v0.617c0,0.883,0.706,1.677,1.412,1.677h2.646c0.618,0,1.147,0.53,1.147,1.147
		s-0.529,1.146-1.147,1.146H7.941c-2.03,0-3.706-1.764-3.706-3.971v-4.059c0-0.617,0.529-1.146,1.147-1.146s1.147,0.529,1.147,1.146
		v1.147H10.5c0.617,0,1.146,0.529,1.146,1.147c0,0.617-0.529,1.146-1.146,1.146H6.529z M15,10H0v15h15V10z"/>
</g>
</svg>
