<?xml version="1.0" encoding="utf-8"?>
<!-- Generator: Adobe Illustrator 16.0.0, SVG Export Plug-In . SVG Version: 6.00 Build 0)  -->
<!DOCTYPE svg PUBLIC "-//W3C//DTD SVG 1.0//EN" "http://www.w3.org/TR/2001/REC-SVG-20010904/DTD/svg10.dtd">
<svg version="1.0" id="Layer_1" xmlns="http://www.w3.org/2000/svg" xmlns:xlink="http://www.w3.org/1999/xlink" x="0px" y="0px"
	 width="15px" height="3.58px" viewBox="0 5.723 15 3.58" enable-background="new 0 5.723 15 3.58" xml:space="preserve">
<g>
	<g>
		<path fill="#FFFFFF" d="M14.752,7.663c0,0.156-0.025,0.273-0.168,0.273c-0.145,0-0.156-0.117-0.156-0.273s0.012-0.273,0.156-0.273
			C14.74,7.389,14.752,7.506,14.752,7.663 M15,8.145V6.83h-0.234v0.442c-0.064-0.065-0.143-0.091-0.234-0.091
			S14.35,7.22,14.297,7.272c-0.092,0.091-0.104,0.261-0.104,0.404s0,0.312,0.104,0.404c0.053,0.051,0.143,0.09,0.234,0.09
			c0.104,0,0.17-0.025,0.234-0.104v0.092H15V8.145z M14.037,8.145V7.52c0-0.104-0.027-0.195-0.105-0.273
			c-0.051-0.052-0.129-0.091-0.221-0.091s-0.182,0.039-0.234,0.104V7.168h-0.234v0.963h0.234V7.545c0-0.13,0.092-0.182,0.156-0.182
			c0.078,0,0.156,0.039,0.156,0.182v0.585h0.248V8.145z M12.838,7.663c0,0.104,0,0.183-0.051,0.234
			c-0.027,0.026-0.066,0.039-0.117,0.039c-0.053,0-0.078-0.013-0.117-0.039C12.5,7.845,12.5,7.767,12.5,7.663
			c0-0.104,0-0.182,0.053-0.234c0.025-0.026,0.064-0.039,0.117-0.039c0.051,0,0.09,0.013,0.117,0.039
			C12.838,7.48,12.838,7.559,12.838,7.663 M13.086,7.663c0-0.169-0.025-0.286-0.104-0.377c-0.066-0.065-0.156-0.117-0.301-0.117
			c-0.143,0-0.234,0.052-0.299,0.117c-0.092,0.091-0.104,0.195-0.104,0.377c0,0.183,0.025,0.287,0.104,0.378
			c0.064,0.064,0.156,0.117,0.299,0.117c0.145,0,0.234-0.053,0.301-0.117C13.061,7.949,13.086,7.845,13.086,7.663 M11.875,7.754
			c0,0.091-0.053,0.169-0.17,0.169h-0.273V7.598h0.273C11.822,7.598,11.875,7.663,11.875,7.754 M11.861,7.207
			c0,0.091-0.064,0.156-0.168,0.156h-0.248V7.064h0.248C11.797,7.051,11.861,7.116,11.861,7.207 M12.135,7.767
			c0-0.183-0.104-0.261-0.182-0.3c0.064-0.026,0.17-0.13,0.17-0.273c0-0.221-0.156-0.377-0.404-0.377h-0.533v1.328h0.547
			C11.967,8.145,12.135,8.014,12.135,7.767 M10.781,7.572h-0.365c0-0.039,0.014-0.065,0.027-0.104
			c0.025-0.052,0.078-0.104,0.156-0.104s0.129,0.039,0.156,0.104C10.781,7.506,10.781,7.533,10.781,7.572 M11.029,7.741V7.637
			c0-0.26-0.156-0.469-0.418-0.469c-0.246,0-0.416,0.182-0.416,0.495c0,0.39,0.221,0.496,0.443,0.496
			c0.168,0,0.273-0.053,0.363-0.156l-0.143-0.144c-0.064,0.065-0.117,0.091-0.221,0.091c-0.131,0-0.209-0.091-0.209-0.221h0.6V7.741
			z M9.805,7.663c0,0.156-0.025,0.273-0.17,0.273c-0.143,0-0.156-0.117-0.156-0.273s0.014-0.273,0.156-0.273
			C9.779,7.389,9.805,7.506,9.805,7.663 M10.039,8.145V6.83H9.805v0.442C9.74,7.207,9.662,7.181,9.57,7.181S9.389,7.22,9.336,7.272
			C9.244,7.363,9.232,7.533,9.232,7.676s0,0.312,0.104,0.404C9.389,8.131,9.479,8.17,9.57,8.17c0.104,0,0.17-0.025,0.234-0.104
			v0.092h0.234V8.145z M9.076,7.181H8.842v0.963h0.234V7.181z M9.076,6.816H8.828v0.195h0.248V6.816z M8.711,7.845
			c0-0.169-0.092-0.261-0.287-0.287L8.268,7.545c-0.09-0.013-0.104-0.052-0.104-0.078c0-0.052,0.039-0.091,0.143-0.091
			c0.078,0,0.17,0.013,0.223,0.065l0.143-0.156C8.58,7.194,8.451,7.168,8.307,7.168c-0.195,0-0.377,0.104-0.377,0.312
			c0,0.182,0.104,0.26,0.287,0.273l0.156,0.013C8.451,7.78,8.477,7.806,8.477,7.858c0,0.078-0.092,0.104-0.17,0.104
			s-0.182-0.013-0.26-0.091L7.891,8.027C8.008,8.145,8.15,8.17,8.307,8.17C8.529,8.158,8.711,8.053,8.711,7.845 M7.799,8.145V7.936
			H7.708c-0.052,0-0.078-0.026-0.078-0.091V7.376h0.169V7.194H7.63V6.92H7.396v0.287H7.292v0.182h0.104v0.482
			c0,0.143,0.078,0.273,0.273,0.273H7.799z M7.227,7.845c0-0.169-0.091-0.261-0.287-0.287L6.784,7.545
			C6.693,7.533,6.68,7.494,6.68,7.467c0-0.052,0.039-0.091,0.143-0.091c0.078,0,0.169,0.013,0.222,0.065l0.143-0.156
			C7.096,7.194,6.966,7.168,6.823,7.168c-0.195,0-0.377,0.104-0.377,0.312c0,0.182,0.104,0.26,0.287,0.273l0.156,0.013
			C6.966,7.78,6.992,7.806,6.992,7.858c0,0.078-0.091,0.104-0.169,0.104s-0.182-0.013-0.26-0.091L6.406,8.027
			C6.523,8.145,6.667,8.17,6.823,8.17C7.044,8.158,7.227,8.053,7.227,7.845 M6.068,7.793c0,0.065-0.013,0.104-0.039,0.117
			C5.99,7.949,5.938,7.962,5.873,7.962c-0.091,0-0.144-0.039-0.144-0.117c0-0.065,0.052-0.104,0.13-0.104h0.195v0.052H6.068z
			 M6.302,8.145V7.506c0-0.221-0.144-0.338-0.417-0.338c-0.156,0-0.247,0.026-0.352,0.13L5.69,7.455
			c0.052-0.052,0.091-0.078,0.183-0.078c0.13,0,0.182,0.052,0.182,0.156v0.052H5.833c-0.222,0-0.326,0.13-0.326,0.287
			c0,0.091,0.026,0.17,0.078,0.221c0.052,0.053,0.143,0.092,0.248,0.092c0.117,0,0.169-0.025,0.234-0.092V8.17h0.234V8.145z
			 M5.404,8.145V7.91H4.792V7.584h0.521V7.35H4.792V7.038h0.612V6.83H4.531v1.329h0.873V8.145z"/>
	</g>
	<path fill="#FFFFFF" d="M2.891,9.277H1.966V8.561h0.442l0.234-0.338L2.422,7.845H1.966V7.129h0.469l0.221-0.338L2.422,6.426H1.966
		V5.723h0.911l0.69,1.068L3.125,7.506l0.456,0.716L2.891,9.277z M1.719,6.439H1.172v0.716h0.56v0.716h-0.56v0.717h0.56v0.715H0.456
		L0,8.574h0.391V6.439H0l0.469-0.716h1.263v0.716H1.719z"/>
</g>
</svg>
