<?xml version="1.0" encoding="utf-8"?>
<!-- Generator: Adobe Illustrator 16.0.0, SVG Export Plug-In . SVG Version: 6.00 Build 0)  -->
<!DOCTYPE svg PUBLIC "-//W3C//DTD SVG 1.0//EN" "http://www.w3.org/TR/2001/REC-SVG-20010904/DTD/svg10.dtd">
<svg version="1.0" id="Layer_1" xmlns="http://www.w3.org/2000/svg" xmlns:xlink="http://www.w3.org/1999/xlink" x="0px" y="0px"
	 width="15px" height="3.58px" viewBox="0 0 15 3.58" enable-background="new 0 0 15 3.58" xml:space="preserve">
<g>
	<g>
		<path d="M14.752,1.939c0,0.156-0.025,0.273-0.168,0.273c-0.145,0-0.156-0.117-0.156-0.273s0.012-0.273,0.156-0.273
			C14.74,1.666,14.752,1.782,14.752,1.939 M15,2.422V1.106h-0.234v0.442c-0.063-0.065-0.143-0.092-0.233-0.092
			s-0.183,0.039-0.235,0.092c-0.092,0.09-0.104,0.261-0.104,0.403c0,0.144,0,0.312,0.104,0.404c0.053,0.051,0.143,0.09,0.234,0.09
			c0.104,0,0.17-0.024,0.234-0.104v0.093H15V2.422z M14.037,2.422V1.797c0-0.104-0.027-0.195-0.105-0.273
			c-0.051-0.053-0.129-0.091-0.221-0.091s-0.182,0.038-0.234,0.104V1.444h-0.233v0.963h0.233V1.821c0-0.13,0.092-0.183,0.156-0.183
			c0.078,0,0.156,0.039,0.156,0.183v0.585h0.248V2.422z M12.838,1.939c0,0.104,0,0.184-0.051,0.234
			c-0.027,0.025-0.066,0.039-0.117,0.039c-0.053,0-0.078-0.014-0.117-0.039C12.5,2.121,12.5,2.043,12.5,1.939s0-0.182,0.053-0.234
			c0.025-0.025,0.064-0.039,0.117-0.039c0.051,0,0.09,0.014,0.117,0.039C12.838,1.756,12.838,1.836,12.838,1.939 M13.086,1.939
			c0-0.169-0.025-0.286-0.104-0.377c-0.066-0.064-0.156-0.117-0.301-0.117c-0.144,0-0.234,0.053-0.3,0.117
			c-0.092,0.091-0.104,0.195-0.104,0.377c0,0.184,0.025,0.287,0.104,0.378c0.063,0.063,0.156,0.117,0.3,0.117
			c0.145,0,0.233-0.054,0.301-0.117C13.061,2.226,13.086,2.121,13.086,1.939 M11.875,2.03c0,0.091-0.053,0.169-0.17,0.169h-0.273
			V1.875h0.273C11.822,1.875,11.875,1.939,11.875,2.03 M11.861,1.483c0,0.091-0.064,0.155-0.168,0.155h-0.248V1.34h0.248
			C11.797,1.327,11.861,1.393,11.861,1.483 M12.135,2.043c0-0.183-0.104-0.261-0.182-0.3c0.064-0.026,0.17-0.13,0.17-0.272
			c0-0.221-0.156-0.377-0.404-0.377h-0.533v1.328h0.547C11.967,2.422,12.135,2.291,12.135,2.043 M10.781,1.848h-0.365
			c0-0.038,0.014-0.064,0.027-0.104c0.024-0.052,0.078-0.104,0.156-0.104c0.077,0,0.129,0.039,0.155,0.104
			C10.781,1.782,10.781,1.81,10.781,1.848 M11.029,2.018V1.914c0-0.261-0.156-0.47-0.418-0.47c-0.246,0-0.416,0.183-0.416,0.495
			c0,0.391,0.221,0.496,0.443,0.496c0.168,0,0.272-0.053,0.362-0.156l-0.144-0.145c-0.063,0.065-0.116,0.092-0.221,0.092
			c-0.131,0-0.209-0.092-0.209-0.221h0.6v0.012H11.029z M9.805,1.939c0,0.156-0.025,0.273-0.17,0.273
			c-0.143,0-0.156-0.117-0.156-0.273s0.015-0.273,0.156-0.273C9.779,1.666,9.805,1.782,9.805,1.939 M10.039,2.422V1.106H9.805v0.442
			C9.74,1.483,9.662,1.457,9.57,1.457S9.389,1.496,9.336,1.549C9.244,1.639,9.232,1.81,9.232,1.952c0,0.144,0,0.312,0.104,0.404
			c0.053,0.051,0.143,0.09,0.234,0.09c0.104,0,0.17-0.024,0.234-0.104v0.093h0.233L10.039,2.422L10.039,2.422z M9.076,1.457H8.842
			V2.42h0.234V1.457z M9.076,1.092H8.828v0.195h0.248V1.092z M8.711,2.121c0-0.169-0.092-0.261-0.287-0.287L8.268,1.821
			C8.178,1.809,8.164,1.77,8.164,1.743c0-0.052,0.039-0.091,0.143-0.091c0.078,0,0.17,0.014,0.223,0.064l0.144-0.155
			C8.58,1.471,8.451,1.444,8.307,1.444c-0.195,0-0.376,0.104-0.376,0.312c0,0.183,0.104,0.261,0.287,0.273l0.156,0.014
			c0.078,0.014,0.104,0.039,0.104,0.092c0,0.078-0.092,0.104-0.17,0.104s-0.182-0.013-0.26-0.091L7.891,2.303
			C8.008,2.422,8.15,2.446,8.307,2.446C8.529,2.435,8.711,2.33,8.711,2.121 M7.799,2.422V2.213H7.708
			c-0.052,0-0.078-0.026-0.078-0.092V1.652h0.169V1.471H7.63V1.196H7.396v0.287H7.292v0.183h0.104v0.481
			c0,0.144,0.078,0.272,0.273,0.272h0.13V2.422z M7.227,2.121c0-0.169-0.091-0.261-0.287-0.287L6.784,1.821
			C6.693,1.81,6.68,1.771,6.68,1.743c0-0.052,0.039-0.091,0.143-0.091c0.078,0,0.169,0.014,0.222,0.064l0.143-0.155
			C7.096,1.471,6.966,1.444,6.823,1.444c-0.195,0-0.377,0.104-0.377,0.312c0,0.183,0.104,0.261,0.287,0.273l0.156,0.014
			c0.077,0.014,0.103,0.039,0.103,0.092c0,0.078-0.091,0.104-0.169,0.104c-0.078,0-0.182-0.013-0.26-0.091L6.406,2.303
			c0.117,0.119,0.261,0.144,0.417,0.144C7.044,2.435,7.227,2.33,7.227,2.121 M6.068,2.069c0,0.065-0.013,0.104-0.039,0.117
			C5.99,2.226,5.938,2.238,5.873,2.238c-0.091,0-0.144-0.039-0.144-0.117c0-0.064,0.052-0.104,0.13-0.104h0.195v0.052H6.068z
			 M6.302,2.422v-0.64c0-0.221-0.144-0.338-0.417-0.338c-0.156,0-0.247,0.026-0.352,0.13L5.69,1.731
			C5.742,1.68,5.781,1.653,5.873,1.653c0.13,0,0.182,0.052,0.182,0.156v0.052H5.833c-0.222,0-0.326,0.13-0.326,0.287
			c0,0.091,0.026,0.17,0.078,0.221c0.052,0.053,0.143,0.092,0.248,0.092c0.117,0,0.169-0.024,0.234-0.092v0.077h0.234L6.302,2.422
			L6.302,2.422z M5.404,2.422V2.187H4.792V1.86h0.521V1.627H4.792V1.314h0.612V1.106H4.531v1.329h0.873V2.422z"/>
	</g>
	<path d="M2.891,3.553H1.966V2.838h0.442L2.642,2.5l-0.22-0.379H1.966V1.405h0.469l0.221-0.338L2.422,0.702H1.966V0h0.911
		l0.69,1.067L3.125,1.782l0.456,0.716L2.891,3.553z M1.719,0.715H1.172v0.717h0.56v0.716h-0.56v0.717h0.56V3.58H0.456L0,2.851h0.391
		V0.715H0L0.469,0h1.263v0.715H1.719z"/>
</g>
</svg>
