<?xml version="1.0" encoding="utf-8"?>
<!-- Generator: Adobe Illustrator 18.1.0, SVG Export Plug-In . SVG Version: 6.00 Build 0)  -->
<svg version="1.1" id="Layer_1" xmlns="http://www.w3.org/2000/svg" xmlns:xlink="http://www.w3.org/1999/xlink" x="0px" y="0px"
	 viewBox="0 0 544.7 199.4" enable-background="new 0 0 544.7 199.4" xml:space="preserve">
<g>
	<g>
		<g>
			<polygon fill="#FFFFFF" points="10.1,126.7 0,110.6 6.8,110.6 13.1,121.3 19.5,110.6 26.1,110.6 15.9,126.6 15.9,137.2 
				10.1,137.2 			"/>
			<path fill="#FFFFFF" d="M55.9,124L55.9,124c0-4.6-3.3-8.4-8-8.4c-4.7,0-7.9,3.7-7.9,8.3v0.1c0,4.6,3.3,8.4,8,8.4
				C52.6,132.3,55.9,128.6,55.9,124 M33.9,124L33.9,124c0-7.6,5.9-13.8,14.1-13.8c8.1,0,14,6.1,14,13.7v0.1
				c0,7.6-5.9,13.8-14.1,13.8C39.8,137.7,33.9,131.6,33.9,124"/>
			<path fill="#FFFFFF" d="M74.3,125.8v-15.2h5.8v15c0,4.3,2.1,6.6,5.7,6.6c3.5,0,5.7-2.2,5.7-6.4v-15.2h5.8v15
				c0,8.1-4.5,12-11.6,12C78.6,137.6,74.3,133.6,74.3,125.8"/>
			<path fill="#FFFFFF" d="M122.8,123.5c2.8,0,4.4-1.5,4.4-3.8v-0.1c0-2.5-1.7-3.8-4.6-3.8h-5.8v7.6H122.8z M111.1,110.6h12.1
				c3.4,0,6,1,7.7,2.7c1.5,1.5,2.3,3.6,2.3,6.1v0.1c0,4.3-2.3,7-5.6,8.2l6.4,9.5h-6.8l-5.7-8.5h-4.6v8.5h-5.8V110.6z"/>
			<path fill="#FFFFFF" d="M372,124L372,124c0-4.6-3.3-8.4-8-8.4c-4.7,0-7.9,3.7-7.9,8.3v0.1c0,4.6,3.3,8.4,8,8.4
				C368.7,132.3,372,128.6,372,124 M350,124L350,124c0-7.6,5.9-13.8,14.1-13.8c8.1,0,14,6.1,14,13.7v0.1c0,7.6-5.9,13.8-14.1,13.8
				C355.8,137.7,350,131.6,350,124"/>
			<polygon fill="#FFFFFF" points="390.7,110.6 410.8,110.6 410.8,115.9 396.6,115.9 396.6,121.6 409.1,121.6 409.1,126.9 
				396.6,126.9 396.6,137.2 390.7,137.2 			"/>
			<polygon fill="#FFFFFF" points="441.8,110.6 447.6,110.6 447.6,131.9 460.8,131.9 460.8,137.2 441.8,137.2 			"/>
			<rect x="472.4" y="110.6" fill="#FFFFFF" width="5.8" height="26.6"/>
			<polygon fill="#FFFFFF" points="492.4,110.6 512.5,110.6 512.5,115.9 498.2,115.9 498.2,121.6 510.8,121.6 510.8,126.9 
				498.2,126.9 498.2,137.2 492.4,137.2 			"/>
			<polygon fill="#FFFFFF" points="524.6,110.6 544.5,110.6 544.5,115.8 530.3,115.8 530.3,121.2 542.8,121.2 542.8,126.4 
				530.3,126.4 530.3,132 544.7,132 544.7,137.2 524.6,137.2 			"/>
			<path fill="#FFFFFF" d="M200.3,78.2c3.3-6.6,6.4-13.2,9.3-19.7c0.9-2.3,1.9-4.7,2.9-7.2c1-2.5,1.9-4.9,2.7-7.3
				c-2.2,1.1-4,2.7-5.6,4.7c-1.5,2-2.8,4.3-3.8,6.8c-1,2.5-1.8,5-2.5,7.5c-0.6,2.6-1.2,4.9-1.6,7L200.3,78.2z M182.7,116.4
				c-5,8-10.1,16.1-15.4,24.2c-5.2,8.1-10.7,16-16.4,23.7c2.2,2.1,4.6,3.6,7.2,4.6c2.6,1,5.4,1.3,8.4,0.9c5.4-0.7,9.9-2.8,13.4-6.4
				c3.6-3.6,6.4-7.9,8.6-12.9c2.1-5,3.6-10.4,4.6-16.1c0.9-5.7,1.4-11.1,1.5-16l0.1-21l-8.7,13.8c2.2,1.4,3.4,2.8,3.6,4.3
				c0.1,0.9-0.1,1.7-0.6,2.2c-0.5,0.5-1.2,0.9-1.8,0.9c-1.1,0.1-1.9-0.1-2.5-0.7L182.7,116.4z M158,145.7c3.8-5,7.4-10.1,11-15.4
				c3.6-5.3,7.1-10.6,10.5-16.2c-1.8-1.2-3.8-2-5.9-2.6c-2.2-0.6-4.4-0.7-6.7-0.4c-3.9,0.5-7.5,1.9-10.7,4.2
				c-3.3,2.3-6.1,5.2-8.4,8.6c-2.3,3.4-4,7.1-5.2,11.2c-1.1,4.1-1.5,8-1,11.8c0.6,4.7,2.4,9.2,5.5,13.3c1.9-2.4,3.7-4.8,5.6-7.2
				C154.5,150.7,156.3,148.3,158,145.7 M167.7,107.6c1.7-0.2,4-0.1,6.8,0.3c2.8,0.4,5.4,1.1,7.8,2c2.3-3.4,4.5-6.9,6.5-10.5
				c2-3.5,4-7.2,6-10.9c0.2-6.3,0.6-12.6,1.4-18.8c0.7-6.2,2-11.8,3.9-16.9c1.8-5,4.3-9.2,7.5-12.6c3.1-3.3,7.2-5.3,12.2-5.9
				c1.1-0.1,2.1,0.1,3,0.6c0.9,0.5,1.6,1.4,1.8,2.6c0.1,1.1-0.1,2.4-0.6,4c-0.6,1.6-1.1,3-1.6,4.1c-3.1,7.8-6.7,15.4-10.6,22.7
				c-4,7.3-8.1,14.5-12.4,21.6c-0.2,3.2-0.3,6.4-0.4,9.6c-0.1,3.2-0.1,6.4,0,9.6c0.1,6,0.1,12.3,0.1,18.8c0,6.5-0.5,12.7-1.6,18.7
				c-1.1,6-3.1,11.5-6.1,16.6c-2.9,5.1-7.2,9.3-13,12.6c-3.4,1.9-7,3.1-10.6,3.6c-4.2,0.5-8.1,0-11.9-1.4c-3.8-1.5-7.2-3.6-10.3-6.4
				c-3.3,4.3-6.7,8.4-10.2,12.4c-3.5,4-7,7.8-10.7,11.4c-0.7,0.8-1.5,1.6-2.4,2.5c-0.9,0.9-1.8,1.4-2.9,1.5
				c-1.1,0.1-2.1-0.2-3.1-0.9c-1-0.7-1.5-1.7-1.7-2.9c-0.2-1.6,0.3-2.9,1.6-3.8c1.3-0.9,2.4-1.8,3.6-2.6c3.8-3.2,7.5-6.7,11.1-10.3
				c3.6-3.7,7.1-7.6,10.5-11.7c-3.3-4.4-5.2-9.4-5.9-14.9c-0.6-4.6-0.1-9.4,1.4-14.5c1.5-5.1,3.8-9.7,6.8-13.9
				c3-4.2,6.6-7.8,10.7-10.8C158.6,110,163,108.2,167.7,107.6"/>
			<path fill="#FFFFFF" d="M243.8,95.7c0.4,0,1.3-1,2.7-2.9c1.4-1.9,3-4.2,4.8-6.8c1.8-2.6,3.7-5.3,5.8-8.1c2-2.8,3.8-5.1,5.4-7
				c1.3-1.5,2.7-3.2,4.3-5.1c1.5-1.8,3.1-3.5,4.7-5.1c1.6-1.6,3.1-2.9,4.5-4c1.4-1.1,2.7-1.7,3.8-1.8c1.1,0,2.1,0.4,3,1.2
				c0.9,0.8,1.4,1.7,1.6,2.8c0.1,1.1-0.1,2-0.6,2.9c-0.5,0.8-1.2,1.6-2.1,2.2c-0.9,0.7-1.8,1.3-2.8,1.9c-1,0.6-2,1.2-2.8,1.9
				c-5.3,4.2-10.4,8.9-15.2,13.8c-4.8,5-9.6,10.1-14.4,15.4c-0.4,0.5-0.7,0.8-1.1,1c-1.1,0.1-1.7-0.3-1.8-1.2
				C243.5,96.7,243.6,96.3,243.8,95.7 M234.9,115.6c-0.4,0-1,0.4-1.7,1c-0.7,0.6-1.5,1.4-2.3,2.3c-0.8,0.9-1.6,1.8-2.4,2.8
				c-0.8,0.9-1.5,1.7-2,2.3c-2.1,2.6-4.3,5.2-6.6,7.9c-2.3,2.7-4.4,5.5-6.3,8.5c-2,3-3.7,6.1-5.2,9.3c-1.5,3.2-2.5,6.5-3.1,9.9
				c1.7-0.6,3.6-1.9,5.8-3.9c2.1-2,4.1-3.7,5.8-5.2c7-6.1,13.7-12.2,19.9-18.2c6.2-6.1,12.7-11.9,19.3-17.6c0.2-0.3,0.7-0.7,1.3-1.3
				c0.6-0.6,1.2-0.9,1.7-0.9c0.7-0.1,1,0.1,1.1,0.7c0.1,0.7-1,2.4-3.3,5.1c-2.3,2.8-5,6-8.3,9.7c-3.3,3.7-6.8,7.5-10.5,11.5
				c-3.7,4-6.8,7.3-9.5,10.1c-1.7,1.7-3.5,3.6-5.3,5.7c-1.9,2.1-3.8,4-5.8,5.8c-2,1.8-4.1,3.3-6.1,4.6c-2,1.3-4,2-6.1,2.3
				c-2.3,0.3-4.2-0.2-5.7-1.5c-1.5-1.3-2.4-2.7-2.6-4.3c-0.2-1.9,0.1-3.9,0.9-6.1c0.8-2.2,1.9-4.3,3.3-6.5c1.4-2.2,2.9-4.3,4.4-6.4
				c1.6-2.1,3.1-4.2,4.5-6.1c2.7-3.9,5.3-7.7,7.8-11.5c2.5-3.8,5.1-7.6,7.6-11.5c0.8-1.2,1.6-2.5,2.4-3.9c0.8-1.4,1.9-2.2,3.4-2.4
				c1.5-0.2,2.6,0.2,3.5,1c0.9,0.9,1.3,1.8,1.5,2.9C236.5,113.4,236,114.6,234.9,115.6"/>
			<path fill="#FFFFFF" d="M348.5,21.7c-10,13.3-19.5,26.6-28.6,39.8c-9.1,13.2-17.9,26.7-26.5,40.4c5.4-5.9,10.5-11.9,15.4-18.1
				c4.8-6.2,9.6-12.4,14.3-18.8c6.1-8.2,11.7-16.4,16.8-24.7c5.1-8.3,10.1-17.2,14.9-26.9c0-0.3,0.1-0.6,0.3-0.9
				c-1.3,1.5-2.5,3.1-3.6,4.7C350.4,18.9,349.4,20.4,348.5,21.7 M283.3,118.3l-10.6,18.4l-7,11.6c1.1-0.8,2.2-1.7,3.2-2.7
				c1-0.9,2-1.8,2.9-2.6c6.4-5.6,12.6-11.5,18.7-17.6c6.1-6.1,12.1-12.2,18.2-18.3c0.2-0.3,0.5-0.7,0.9-1c0.4-0.4,0.7-0.6,0.9-0.6
				c0.8-0.1,1.3,0.3,1.4,1.1c0,0.3-0.4,1-1.4,2.2c-0.9,1.2-2.1,2.6-3.4,4.2c-1.3,1.6-2.7,3.3-4.2,5.1c-1.5,1.8-2.8,3.3-4,4.7
				c-3.8,4.5-7.7,9-11.6,13.6c-3.9,4.6-8,9-12.3,13.1c-2.3,2.2-4.9,4.6-7.6,7.2c-2.8,2.6-5.6,4.1-8.6,4.5c-1.3,0.2-2.4-0.1-3.3-0.9
				c-0.8-0.8-1.3-1.7-1.5-2.8c-0.1-1.2,0.1-2.6,0.6-4.1c0.6-1.5,1.3-3,2.1-4.6c0.8-1.5,1.7-3,2.6-4.4c0.9-1.4,1.7-2.7,2.4-3.9
				c1.8-3.1,3.6-6.2,5.4-9.2c1.8-3,3.7-6.1,5.6-9.3c1-4,1.7-7.7,2.1-11.2c0-0.1-0.1-0.6-0.2-1.4c-0.1-0.8-0.3-1.1-0.5-1l-0.2,0
				c0,0.1,0.1,0.2,0.1,0.2c0.1,0,0.1,0.1,0.1,0.2l-0.8,0.1c-0.7,0.1-1.5,0.5-2.4,1.1c-0.9,0.7-1.9,1.4-3,2.3
				c-1.1,0.9-2.1,1.8-3.1,2.8c-1,1-2,1.8-2.9,2.6c-5.6,5.4-10.8,11.1-15.6,17.2c-4.8,6.1-8.6,13.2-11.4,21.2l-0.3,1.3
				c1.8-0.9,3.7-2.4,5.6-4.4c1.9-2,3.8-3.9,5.5-5.6c3.1-3.3,6.2-6.7,9.1-10.4c2.9-3.7,5.8-7.3,8.6-11c0.2-0.7,0.6-1.1,1.3-1.2
				c0.7-0.1,1,0.2,1.1,0.9c0.1,0.7-0.4,1.9-1.3,3.7c-0.9,1.8-2.1,3.7-3.5,5.9c-1.4,2.2-2.8,4.4-4.3,6.6c-1.5,2.2-2.8,4.2-4,5.9
				c-1.3,1.8-2.6,3.7-4,5.8c-1.4,2-2.9,3.9-4.4,5.7c-1.6,1.8-3.2,3.3-5,4.5c-1.8,1.2-3.6,2-5.7,2.2c-1.9,0.2-3.5-0.1-4.8-1.1
				c-1.3-0.9-2.1-2.3-2.3-4c-0.2-1.8,0.1-3.7,0.8-5.8c0.8-2.1,1.8-4.2,3-6.3c1.3-2.1,2.7-4.1,4.3-6.2c1.6-2.1,3-3.9,4.3-5.6
				c2.5-3.2,5.1-6.8,7.9-10.9c2.8-4.1,5.6-7.9,8.6-11.6c3-3.7,5.9-6.8,8.8-9.4c2.9-2.6,5.7-4.1,8.4-4.4c2.3-0.3,4.2,0.2,5.7,1.6
				c1.5,1.3,2.4,2.9,2.6,4.8c0,0.3,0,0.5,0,0.8c0,0.3,0,0.6,0,0.8c5.5-8.5,11-17,16.5-25.4c5.5-8.4,11-16.8,16.5-25.4
				c5.4-8.4,10.8-16.6,16.2-24.7c5.4-8.1,11.2-16,17.4-23.8c1.3-1.7,2.9-3.6,4.7-5.7c1.9-2.2,3.9-3.4,6.2-3.7
				c1.5-0.2,2.9,0.2,4.1,1.2c1.3,1,2,2.3,2.2,4c0.2,1.6,0,3.4-0.7,5.3c-0.7,1.9-1.5,3.9-2.6,5.9c-1.1,2-2.2,3.9-3.5,5.8
				c-1.3,1.9-2.4,3.6-3.5,5.3c-10.3,15.3-21.2,30.5-32.8,45.6c-11.6,15.1-23.5,29.1-35.7,41.9L283.3,118.3z"/>
			<path fill="#FFFFFF" d="M326.8,106.1c-6.5,1.9-12.2,5-17.4,9.4c-5.1,4.3-9,9.6-11.7,15.9l1.6-0.2c3.6-0.4,7-1.8,10.1-4.1
				c3.1-2.3,5.9-4.9,8.3-7.6c2.4-2.8,4.3-5.3,5.8-7.7c1.5-2.4,2.4-3.9,2.7-4.7L326.8,106.1z M295.3,149.6c-0.1,0-0.3,0-0.4-0.2
				C295,149.6,295.2,149.6,295.3,149.6 M356.2,102c-7.5,8.2-15,16.3-22.6,24.1c-7.6,7.9-15.5,15.6-23.8,23.3
				c-1.8,1.7-3.9,3.5-6.1,5.4c-2.2,1.9-4.7,3-7.4,3.3c-2.7,0.3-4.9-0.2-6.8-1.7c-1.8-1.5-2.9-3.6-3.2-6.3c-0.3-2.4-0.1-5,0.7-7.6
				c0.8-2.6,1.8-5.2,3.1-7.8c1.3-2.6,2.8-5.1,4.5-7.7c1.7-2.5,3.2-4.9,4.7-7.2c1.6-2.5,3.3-5.1,5.2-7.7c1.9-2.6,3.9-4.9,6.1-7.1
				c2.2-2.2,4.6-4,7.2-5.5c2.6-1.5,5.5-2.4,8.8-2.8c2.1-0.3,4.2-0.1,6.2,0.6c2,0.6,3.1,2.3,3.5,5c0.3,2.3-0.3,4.6-1.6,7
				c-1.3,2.4-3.1,4.7-5.2,6.9c-2.1,2.3-4.3,4.4-6.7,6.5c-2.3,2.1-4.4,3.9-6.3,5.3c-1.5,1.3-3,2.6-4.6,3.9c-1.6,1.3-3.3,2.5-5,3.7
				c-1.7,1.2-3.4,2.2-5.2,3c-1.7,0.8-3.4,1.3-5,1.5c-0.7,0.1-1.2,0.1-1.6,0c-0.4,2.3-0.6,4.3-0.5,6c-0.2,0.6-0.3,1.3-0.2,2.1
				c0.1,0.5,0.2,0.9,0.3,1c2.4-0.3,4.9-1.1,7.4-2.5c2.5-1.3,5-3,7.5-4.8c2.5-1.9,4.9-3.9,7.2-6.1c2.3-2.1,4.5-4.1,6.6-5.9
				c5.3-4.6,10.4-9.3,15.2-13.9c4.8-4.6,9.9-9.5,15.1-14.6c0.1-0.1,0.3-0.4,0.6-0.7c0.3-0.3,0.6-0.5,0.9-0.5c0.7-0.1,1,0.2,1.1,0.9
				C356.5,101.6,356.4,101.9,356.2,102"/>
		</g>
	</g>
</g>
</svg>
