<?xml version="1.0" encoding="utf-8"?>
<!-- Generator: Adobe Illustrator 16.0.0, SVG Export Plug-In . SVG Version: 6.00 Build 0)  -->
<!DOCTYPE svg PUBLIC "-//W3C//DTD SVG 1.0//EN" "http://www.w3.org/TR/2001/REC-SVG-20010904/DTD/svg10.dtd">
<svg version="1.0" id="Layer_1" xmlns="http://www.w3.org/2000/svg" xmlns:xlink="http://www.w3.org/1999/xlink" x="0px" y="0px"
	 width="15px" height="3px" viewBox="0 -0.062 15 3" enable-background="new 0 -0.062 15 3" xml:space="preserve">
<g>
	<polygon points="4.478,0 4.115,1.258 3.756,0 2.922,0 2.922,2.07 3.555,2.07 3.555,1.258 3.511,0.79 3.87,2.07 4.365,2.07 
		4.725,0.812 4.679,1.258 4.679,2.07 5.311,2.07 5.311,0 	"/>
	<g>
		<g>
			<defs>
				<rect id="SVGID_1_" width="15" height="2.838"/>
			</defs>
			<clipPath id="SVGID_2_">
				<use xlink:href="#SVGID_1_"  overflow="visible"/>
			</clipPath>
			<path clip-path="url(#SVGID_2_)" d="M6.355,1.029C6.314,1.084,6.29,1.146,6.277,1.211C6.274,1.227,6.274,1.242,6.271,1.255
				c0,0.016,0,0.031,0,0.044c0,0.021,0,0.043,0.003,0.064S6.281,1.41,6.287,1.432C6.303,1.5,6.33,1.562,6.371,1.621
				C6.41,1.68,6.47,1.707,6.544,1.707c0.075,0,0.13-0.027,0.167-0.086c0.037-0.06,0.06-0.121,0.072-0.189
				c0.002-0.025,0.006-0.047,0.009-0.068c0-0.021,0.003-0.043,0.003-0.064c0-0.016,0-0.031-0.003-0.044
				c0-0.016-0.003-0.03-0.003-0.044C6.776,1.146,6.752,1.084,6.711,1.029c-0.04-0.057-0.102-0.084-0.186-0.084
				C6.451,0.945,6.396,0.973,6.355,1.029 M6.525,0.514c0.021,0.004,0.043,0.004,0.062,0.007c0.021,0,0.04,0.003,0.059,0.007
				C6.829,0.545,7,0.617,7.154,0.737C7.31,0.858,7.393,1.051,7.402,1.311v0.041c0,0.263-0.08,0.455-0.244,0.582
				C6.996,2.058,6.816,2.125,6.621,2.139C6.609,2.141,6.597,2.141,6.584,2.141H6.547H6.522H6.494
				C6.29,2.132,6.102,2.063,5.928,1.937C5.754,1.812,5.67,1.602,5.67,1.311c0-0.227,0.059-0.399,0.18-0.514
				c0.121-0.118,0.254-0.195,0.4-0.236c0.047-0.012,0.093-0.021,0.143-0.027c0.047-0.006,0.093-0.01,0.133-0.01V0.514z"/>
		</g>
		<g>
			<defs>
				<rect id="SVGID_3_" width="15" height="2.838"/>
			</defs>
			<clipPath id="SVGID_4_">
				<use xlink:href="#SVGID_3_"  overflow="visible"/>
			</clipPath>
			<path clip-path="url(#SVGID_4_)" d="M8.342,0.558v0.298c0.043-0.111,0.096-0.192,0.164-0.242c0.064-0.049,0.16-0.074,0.287-0.074
				l0.09-0.003v0.61c-0.009,0.003-0.018,0.003-0.03,0.003s-0.021,0-0.034-0.003H8.787H8.756c-0.102,0-0.182,0.021-0.247,0.068
				C8.443,1.258,8.412,1.354,8.412,1.494V2.07H7.78V0.558H8.342z"/>
		</g>
		<g>
			<defs>
				<rect id="SVGID_5_" width="15" height="2.838"/>
			</defs>
			<clipPath id="SVGID_6_">
				<use xlink:href="#SVGID_5_"  overflow="visible"/>
			</clipPath>
			<path clip-path="url(#SVGID_6_)" d="M9.841,1.047C9.811,1.1,9.797,1.172,9.797,1.262c0,0.092,0.02,0.166,0.053,0.229
				c0.035,0.062,0.094,0.09,0.171,0.09c0.081,0,0.137-0.027,0.171-0.08c0.033-0.057,0.053-0.134,0.053-0.238
				c0-0.104-0.02-0.174-0.053-0.224c-0.037-0.046-0.094-0.071-0.171-0.071C9.931,0.97,9.872,0.998,9.841,1.047 M10.832,2.086
				c0,0.015,0,0.07-0.002,0.176c-0.02,0.217-0.109,0.561-0.487,0.561H9.196V2.256l0.833-0.006c0,0,0.174,0.012,0.224-0.152
				c0.003-0.006,0.007-0.021,0.007-0.021s0.006-0.025,0.006-0.047s0-0.183,0-0.183c-0.047,0.053-0.105,0.09-0.17,0.118
				c-0.068,0.027-0.137,0.043-0.209,0.046C9.878,2.014,9.872,2.014,9.863,2.014H9.838c-0.016,0-0.031,0-0.043,0
				c-0.016,0-0.028-0.003-0.044-0.006C9.603,1.989,9.466,1.921,9.342,1.801C9.219,1.683,9.156,1.509,9.156,1.286
				c0-0.003,0-0.01,0.003-0.016c0-0.007,0.003-0.013,0.003-0.019s0-0.013,0-0.019c0-0.007,0-0.009,0-0.016
				c0.013-0.22,0.074-0.388,0.189-0.495C9.466,0.61,9.59,0.545,9.723,0.527C9.738,0.523,9.754,0.523,9.77,0.521
				c0.016,0,0.031-0.003,0.047-0.003c0.09,0,0.176,0.019,0.257,0.053c0.084,0.033,0.146,0.086,0.192,0.154V0.558h0.564v1.528H10.832
				z"/>
		</g>
		<g>
			<defs>
				<rect id="SVGID_7_" width="15" height="2.838"/>
			</defs>
			<clipPath id="SVGID_8_">
				<use xlink:href="#SVGID_7_"  overflow="visible"/>
			</clipPath>
			<path clip-path="url(#SVGID_8_)" d="M12.295,1.422c-0.025,0.016-0.049,0.028-0.074,0.035c-0.027,0.009-0.056,0.015-0.084,0.021
				c-0.01,0-0.016,0-0.024,0.002c-0.007,0.004-0.016,0.004-0.024,0.007c-0.06,0.009-0.109,0.024-0.155,0.046
				c-0.044,0.022-0.068,0.06-0.068,0.115c0,0.037,0.019,0.068,0.053,0.09s0.074,0.031,0.12,0.031c0.01,0,0.016,0,0.025,0
				c0.006,0,0.016-0.004,0.025-0.004c0.021-0.002,0.043-0.012,0.064-0.021c0.021-0.009,0.037-0.018,0.053-0.031
				c0.019-0.018,0.034-0.039,0.05-0.059c0.013-0.021,0.021-0.04,0.028-0.062c0.006-0.019,0.012-0.034,0.015-0.053
				s0.007-0.034,0.007-0.05V1.479c0-0.004,0-0.007-0.004-0.01V1.463V1.457c0-0.007,0-0.014-0.003-0.02c0-0.006,0-0.01,0-0.016l0,0
				H12.295z M11.508,0.65c0.103-0.09,0.326-0.137,0.676-0.137c0.328,0,0.529,0.053,0.607,0.162c0.077,0.107,0.123,0.227,0.133,0.355
				c0,0.004,0,0.01,0.004,0.014c0,0.002,0,0.009,0,0.012v0.787c0,0.037,0.006,0.071,0.018,0.102c0.013,0.031,0.037,0.06,0.072,0.081
				v0.04h-0.654l-0.021-0.158c-0.041,0.053-0.103,0.097-0.189,0.131c-0.086,0.033-0.177,0.053-0.275,0.062c-0.016,0-0.028,0-0.043,0
				c-0.014,0-0.029,0-0.044,0h-0.016h-0.019c-0.093-0.003-0.18-0.021-0.264-0.056c-0.084-0.031-0.148-0.086-0.191-0.161
				c-0.004-0.009-0.01-0.019-0.013-0.028c-0.003-0.009-0.009-0.021-0.016-0.033c-0.009-0.025-0.016-0.057-0.024-0.09
				c-0.01-0.035-0.013-0.068-0.013-0.103c0-0.024,0.003-0.046,0.007-0.071c0.002-0.025,0.009-0.05,0.018-0.074
				c0.01-0.025,0.021-0.05,0.034-0.074c0.016-0.025,0.031-0.05,0.053-0.072c0.047-0.052,0.112-0.092,0.192-0.117
				s0.164-0.043,0.248-0.059c0.031-0.006,0.064-0.013,0.096-0.016s0.062-0.01,0.093-0.012c0.044-0.004,0.087-0.01,0.128-0.02
				c0.039-0.006,0.074-0.016,0.102-0.024c0.021-0.007,0.041-0.019,0.056-0.031c0.016-0.015,0.024-0.03,0.031-0.044
				c0-0.002,0-0.009,0.003-0.012c0-0.003,0-0.006,0-0.012c0-0.007,0-0.01,0-0.014c0-0.002-0.003-0.006-0.003-0.009
				c-0.007-0.021-0.022-0.04-0.046-0.056c-0.025-0.016-0.062-0.025-0.105-0.025c-0.057,0-0.105,0.01-0.146,0.025
				c-0.04,0.016-0.068,0.053-0.077,0.108l-0.61-0.003C11.338,0.867,11.406,0.74,11.508,0.65"/>
		</g>
		<g>
			<defs>
				<rect id="SVGID_9_" width="15" height="2.838"/>
			</defs>
			<clipPath id="SVGID_10_">
				<use xlink:href="#SVGID_9_"  overflow="visible"/>
			</clipPath>
			<path clip-path="url(#SVGID_10_)" d="M13.891,0.558V0.79c0.053-0.077,0.115-0.136,0.195-0.18
				c0.078-0.044,0.161-0.067,0.244-0.081c0.016-0.002,0.031-0.002,0.044-0.006c0.016,0,0.028,0,0.044,0
				c0.143,0,0.27,0.043,0.387,0.127s0.174,0.208,0.174,0.365V2.07h-0.611V1.215c0-0.065-0.021-0.111-0.061-0.146
				c-0.041-0.033-0.084-0.049-0.131-0.053H14.17h-0.006H14.16h-0.006c-0.047,0.004-0.09,0.02-0.131,0.053
				c-0.039,0.035-0.062,0.084-0.062,0.149V2.07h-0.607V0.558H13.891z"/>
		</g>
		<g>
			<defs>
				<rect id="SVGID_11_" width="15" height="2.838"/>
			</defs>
			<clipPath id="SVGID_12_">
				<use xlink:href="#SVGID_11_"  overflow="visible"/>
			</clipPath>
			<path clip-path="url(#SVGID_12_)" d="M3.39,2.59C3.387,2.513,3.381,2.42,3.381,2.352H3.377c-0.018,0.065-0.043,0.133-0.07,0.211
				l-0.1,0.27H3.151l-0.09-0.264C3.037,2.491,3.012,2.42,2.996,2.352H2.993C2.99,2.42,2.986,2.513,2.98,2.597L2.965,2.835H2.896
				L2.934,2.28h0.094l0.096,0.271C3.145,2.618,3.166,2.68,3.18,2.736h0.002c0.016-0.057,0.035-0.118,0.06-0.186L3.34,2.28h0.094
				l0.033,0.555h-0.07L3.39,2.59z"/>
		</g>
		<g>
			<defs>
				<rect id="SVGID_13_" width="15" height="2.838"/>
			</defs>
			<clipPath id="SVGID_14_">
				<use xlink:href="#SVGID_13_"  overflow="visible"/>
			</clipPath>
			<path clip-path="url(#SVGID_14_)" d="M3.932,2.603L3.877,2.441C3.863,2.404,3.854,2.373,3.848,2.34l0,0
				C3.839,2.373,3.83,2.408,3.82,2.438L3.765,2.6h0.167V2.603z M3.749,2.658L3.69,2.832H3.616l0.188-0.555h0.087L4.08,2.832H4.004
				l-0.06-0.174H3.749z"/>
		</g>
		<g>
			<defs>
				<rect id="SVGID_15_" width="15" height="2.838"/>
			</defs>
			<clipPath id="SVGID_16_">
				<use xlink:href="#SVGID_15_"  overflow="visible"/>
			</clipPath>
			<path clip-path="url(#SVGID_16_)" d="M4.242,2.832V2.277h0.077L4.496,2.56c0.04,0.065,0.074,0.124,0.1,0.18h0.002
				C4.592,2.664,4.589,2.597,4.589,2.51V2.277h0.068v0.555H4.586L4.409,2.551C4.372,2.488,4.335,2.426,4.304,2.364H4.301
				C4.304,2.436,4.307,2.5,4.307,2.594v0.238H4.242z"/>
		</g>
		<g>
			<defs>
				<rect id="SVGID_17_" width="15" height="2.838"/>
			</defs>
			<clipPath id="SVGID_18_">
				<use xlink:href="#SVGID_17_"  overflow="visible"/>
			</clipPath>
			<path clip-path="url(#SVGID_18_)" d="M5.152,2.603L5.098,2.441C5.084,2.404,5.075,2.373,5.069,2.34l0,0
				C5.061,2.373,5.051,2.408,5.041,2.438L4.985,2.6h0.167V2.603z M4.971,2.658l-0.06,0.174H4.837l0.188-0.555h0.088l0.188,0.555
				H5.225l-0.06-0.174H4.971z"/>
		</g>
		<g>
			<defs>
				<rect id="SVGID_19_" width="15" height="2.838"/>
			</defs>
			<clipPath id="SVGID_20_">
				<use xlink:href="#SVGID_19_"  overflow="visible"/>
			</clipPath>
			<path clip-path="url(#SVGID_20_)" d="M5.881,2.807C5.85,2.82,5.785,2.838,5.711,2.838c-0.084,0-0.155-0.021-0.208-0.074
				C5.457,2.717,5.426,2.643,5.426,2.557c0-0.168,0.114-0.289,0.301-0.289c0.064,0,0.114,0.016,0.139,0.025L5.847,2.352
				C5.816,2.34,5.779,2.327,5.723,2.327C5.586,2.327,5.5,2.41,5.5,2.551c0,0.142,0.084,0.223,0.214,0.223
				c0.046,0,0.077-0.006,0.096-0.016V2.594H5.698V2.535h0.183V2.807z"/>
		</g>
	</g>
	<polygon points="6.11,2.277 6.11,2.832 6.42,2.832 6.42,2.773 6.182,2.773 6.182,2.572 6.398,2.572 6.398,2.513 6.182,2.513 
		6.182,2.336 6.41,2.336 6.41,2.277 	"/>
	<g>
		<g>
			<defs>
				<rect id="SVGID_21_" width="15" height="2.838"/>
			</defs>
			<clipPath id="SVGID_22_">
				<use xlink:href="#SVGID_21_"  overflow="visible"/>
			</clipPath>
			<path clip-path="url(#SVGID_22_)" d="M7.105,2.59c-0.004-0.077-0.01-0.17-0.01-0.238H7.093C7.074,2.417,7.049,2.484,7.021,2.562
				l-0.1,0.27H6.866l-0.09-0.264C6.752,2.491,6.727,2.42,6.711,2.352l0,0C6.709,2.42,6.705,2.513,6.699,2.597L6.684,2.835H6.615
				L6.652,2.28h0.094l0.096,0.271C6.863,2.618,6.885,2.68,6.897,2.736H6.9C6.916,2.68,6.935,2.618,6.959,2.551l0.1-0.271h0.093
				l0.034,0.555H7.114L7.105,2.59z"/>
		</g>
	</g>
	<polygon points="7.415,2.277 7.415,2.832 7.728,2.832 7.728,2.773 7.489,2.773 7.489,2.572 7.703,2.572 7.703,2.513 7.489,2.513 
		7.489,2.336 7.715,2.336 7.715,2.277 	"/>
	<g>
		<g>
			<defs>
				<rect id="SVGID_23_" width="15" height="2.838"/>
			</defs>
			<clipPath id="SVGID_24_">
				<use xlink:href="#SVGID_23_"  overflow="visible"/>
			</clipPath>
			<path clip-path="url(#SVGID_24_)" d="M7.941,2.832V2.277H8.02l0.18,0.282c0.039,0.065,0.074,0.124,0.099,0.18l0,0
				C8.291,2.664,8.289,2.597,8.289,2.51V2.277h0.068v0.555H8.285L8.109,2.551C8.068,2.488,8.031,2.426,8.004,2.364H8
				C8.004,2.436,8.007,2.5,8.007,2.594v0.238H7.941z"/>
		</g>
	</g>
	<polygon points="8.559,2.277 8.559,2.34 8.729,2.34 8.729,2.832 8.8,2.832 8.8,2.34 8.971,2.34 8.971,2.277 	"/>
	<g>
		<g>
			<defs>
				<rect id="SVGID_25_" width="15" height="2.838"/>
			</defs>
			<clipPath id="SVGID_26_">
				<use xlink:href="#SVGID_25_"  overflow="visible"/>
			</clipPath>
			<path clip-path="url(#SVGID_26_)" d="M0.917,2.594c-1.559-0.536-0.164-1.621-0.164-1.621c0.75-0.555,0.074-0.864-0.241-0.97H0
				V2.82h2.621V2.461C1.658,2.785,0.917,2.594,0.917,2.594"/>
		</g>
		<g>
			<defs>
				<rect id="SVGID_27_" width="15" height="2.838"/>
			</defs>
			<clipPath id="SVGID_28_">
				<use xlink:href="#SVGID_27_"  overflow="visible"/>
			</clipPath>
			<path clip-path="url(#SVGID_28_)" d="M1.537,1.172C0.898,1.794,2.266,1.543,2.621,1.469V0.006H0.898
				C2.303,0.691,1.537,1.172,1.537,1.172"/>
		</g>
		<g>
			<defs>
				<rect id="SVGID_29_" width="15" height="2.838"/>
			</defs>
			<clipPath id="SVGID_30_">
				<use xlink:href="#SVGID_29_"  overflow="visible"/>
			</clipPath>
			<path clip-path="url(#SVGID_30_)" d="M10.814,2.822c0,0,0.381-0.043,0.393-0.557H15v0.557H10.814z"/>
		</g>
	</g>
</g>
</svg>
