<?xml version="1.0" encoding="utf-8"?>
<!-- Generator: Adobe Illustrator 16.0.0, SVG Export Plug-In . SVG Version: 6.00 Build 0)  -->
<!DOCTYPE svg PUBLIC "-//W3C//DTD SVG 1.0//EN" "http://www.w3.org/TR/2001/REC-SVG-20010904/DTD/svg10.dtd">
<svg version="1.0" id="Layer_1" xmlns="http://www.w3.org/2000/svg" xmlns:xlink="http://www.w3.org/1999/xlink" x="0px" y="0px"
	 width="15px" height="1px" viewBox="0 0.289 15 1" enable-background="new 0 0.289 15 1" xml:space="preserve">
<g>
	<g>
		<g>
			<defs>
				<rect id="SVGID_1_" y="0.457" width="15" height="0.664"/>
			</defs>
			<clipPath id="SVGID_2_">
				<use xlink:href="#SVGID_1_"  overflow="visible"/>
			</clipPath>
			<path clip-path="url(#SVGID_2_)" d="M0.002,0.471H0.58L0.577,0.658H0.566c-0.018-0.14-0.088-0.186-0.168-0.186
				c-0.015,0-0.027,0.003-0.032,0.008C0.361,0.486,0.355,0.496,0.355,0.508v0.558c0,0.011,0.003,0.018,0.008,0.022
				c0.006,0.006,0.016,0.008,0.028,0.008h0.046v0.01H0.135v-0.01h0.068c0.01,0,0.016-0.002,0.021-0.008
				c0.005-0.005,0.008-0.01,0.008-0.02V0.504c0-0.011-0.003-0.021-0.011-0.025C0.217,0.473,0.206,0.471,0.19,0.471
				c-0.04,0-0.102,0.02-0.13,0.059C0.038,0.562,0.023,0.588,0.013,0.656h-0.018L0.002,0.471z"/>
		</g>
		<g>
			<defs>
				<rect id="SVGID_3_" y="0.457" width="15" height="0.664"/>
			</defs>
			<clipPath id="SVGID_4_">
				<use xlink:href="#SVGID_3_"  overflow="visible"/>
			</clipPath>
			<path clip-path="url(#SVGID_4_)" d="M0.918,0.574h0.241v0.028H1.111c-0.018,0,0.002,0.003-0.003,0.008S1.101,0.628,1.101,0.648
				v0.176h0.206V0.648c0-0.021-0.002-0.033-0.008-0.038C1.294,0.605,1.271,0.603,1.254,0.603H1.251V0.574h0.233v0.028H1.462
				c-0.013,0-0.021,0.003-0.025,0.005C1.432,0.61,1.429,0.615,1.424,0.621C1.422,0.625,1.422,0.636,1.422,0.653v0.399
				c0,0.018,0.002,0.03,0.004,0.033c0.008,0.008,0.033,0.012,0.051,0.012h0.006v0.011H1.262V1.098h0.002
				c0.018,0,0.03-0.004,0.035-0.012C1.302,1.08,1.305,1.068,1.305,1.051V0.836H1.098v0.201c0,0.018,0.003,0.043,0.006,0.049
				c0.008,0.008,0.018,0.012,0.035,0.012H1.17v0.014H0.931V1.098h0.018c0.008,0,0.015-0.002,0.021-0.004
				c0.005-0.003,0.01-0.008,0.013-0.014c0.003-0.004,0.003-0.027,0.003-0.045V0.648c0-0.021-0.003-0.033-0.008-0.038
				C0.971,0.605,0.979,0.603,0.963,0.603H0.92V0.574H0.918z"/>
		</g>
		<g>
			<defs>
				<rect id="SVGID_5_" y="0.457" width="15" height="0.664"/>
			</defs>
			<clipPath id="SVGID_6_">
				<use xlink:href="#SVGID_5_"  overflow="visible"/>
			</clipPath>
			<path clip-path="url(#SVGID_6_)" d="M1.818,0.574h0.43v0.125H2.237C2.227,0.643,2.179,0.588,2.141,0.588H2.021
				c-0.01,0-0.018,0.002-0.023,0.007C1.993,0.6,1.99,0.607,1.99,0.615v0.206h0.051c0.028,0,0.051-0.008,0.069-0.025
				C2.128,0.777,2.139,0.75,2.139,0.715h0.027v0.246H2.139C2.136,0.92,2.128,0.89,2.11,0.872C2.092,0.854,2.069,0.847,2.039,0.847
				H1.99v0.231c0,0.008,0.003,0.013,0.011,0.018c0.005,0.006,0.015,0.006,0.03,0.006h0.094c0.102,0,0.123-0.023,0.138-0.141h0.008
				v0.147H1.818V1.098h0.04c0.015,0,0.028-0.002,0.033-0.007C1.898,1.086,1.902,1.078,1.902,1.07V0.615
				c0-0.01-0.004-0.016-0.008-0.021C1.889,0.59,1.879,0.588,1.866,0.588H1.815V0.574H1.818z"/>
		</g>
		<g>
			<defs>
				<rect id="SVGID_7_" y="0.457" width="15" height="0.664"/>
			</defs>
			<clipPath id="SVGID_8_">
				<use xlink:href="#SVGID_7_"  overflow="visible"/>
			</clipPath>
			<path clip-path="url(#SVGID_8_)" d="M3.143,0.471h0.203l0.181,0.5l0.167-0.5H3.9v0.033H3.85c-0.018,0-0.031,0.002-0.036,0.008
				C3.809,0.516,3.803,0.526,3.803,0.539v0.504c0,0.01,0.004,0.018,0.011,0.022C3.821,1.07,3.834,1.072,3.852,1.072h0.046v0.033
				H3.62V1.072h0.052c0.015,0,0.025-0.002,0.032-0.007c0.008-0.005,0.011-0.013,0.011-0.022V0.504L3.514,1.105H3.485l-0.216-0.6
				v0.463c0,0.027,0.002,0.049,0.01,0.061c0.008,0.014,0.016,0.023,0.028,0.031s0.033,0.012,0.062,0.012v0.033H3.14V1.072
				c0.038-0.002,0.063-0.01,0.077-0.025c0.012-0.015,0.02-0.04,0.02-0.076V0.534c0-0.011-0.002-0.019-0.01-0.022
				C3.219,0.506,3.209,0.504,3.19,0.504H3.14V0.471H3.143z"/>
		</g>
		<g>
			<defs>
				<rect id="SVGID_9_" y="0.457" width="15" height="0.664"/>
			</defs>
			<clipPath id="SVGID_10_">
				<use xlink:href="#SVGID_9_"  overflow="visible"/>
			</clipPath>
			<path clip-path="url(#SVGID_10_)" d="M4.53,0.59c-0.054,0-0.097,0.021-0.13,0.059S4.35,0.75,4.35,0.839
				c0,0.097,0.018,0.163,0.051,0.198s0.076,0.057,0.127,0.057c0.036,0,0.066-0.008,0.092-0.025s0.049-0.044,0.064-0.079
				c0.015-0.036,0.022-0.084,0.022-0.143c0-0.063-0.008-0.114-0.022-0.149C4.668,0.661,4.647,0.633,4.619,0.615
				C4.594,0.6,4.563,0.59,4.53,0.59 M4.523,0.564c0.051,0,0.099,0.013,0.145,0.035c0.045,0.023,0.078,0.057,0.104,0.1
				s0.039,0.092,0.039,0.145c0,0.054-0.014,0.102-0.039,0.146C4.746,1.032,4.711,1.065,4.668,1.088
				C4.622,1.111,4.576,1.124,4.525,1.124c-0.049,0-0.094-0.013-0.137-0.036C4.345,1.065,4.312,1.032,4.287,0.986
				C4.262,0.943,4.248,0.895,4.248,0.842c0-0.054,0.014-0.1,0.039-0.143s0.058-0.076,0.102-0.1C4.432,0.574,4.477,0.564,4.523,0.564
				"/>
		</g>
		<g>
			<defs>
				<rect id="SVGID_11_" y="0.457" width="15" height="0.664"/>
			</defs>
			<clipPath id="SVGID_12_">
				<use xlink:href="#SVGID_11_"  overflow="visible"/>
			</clipPath>
			<path clip-path="url(#SVGID_12_)" d="M5.443,0.615l0.038-0.046h0.03l0.003,0.196H5.486C5.469,0.707,5.443,0.661,5.41,0.636
				C5.377,0.607,5.339,0.595,5.296,0.595c-0.036,0-0.066,0.011-0.089,0.028c-0.023,0.02-0.035,0.043-0.035,0.068
				c0,0.018,0.004,0.033,0.012,0.046s0.023,0.022,0.039,0.03C5.24,0.775,5.273,0.785,5.321,0.793
				C5.39,0.807,5.436,0.818,5.463,0.832c0.029,0.012,0.049,0.029,0.062,0.051c0.013,0.02,0.021,0.043,0.021,0.07
				c0,0.049-0.018,0.09-0.057,0.119C5.453,1.104,5.405,1.121,5.347,1.121c-0.063,0-0.117-0.018-0.163-0.053L5.139,1.119H5.107V0.912
				h0.031C5.15,0.969,5.176,1.015,5.215,1.047C5.255,1.08,5.299,1.096,5.35,1.096c0.04,0,0.073-0.01,0.099-0.03
				S5.486,1.02,5.486,0.989c0-0.019-0.005-0.033-0.016-0.046C5.461,0.931,5.445,0.92,5.426,0.91C5.405,0.9,5.364,0.89,5.303,0.877
				c-0.065-0.013-0.111-0.03-0.137-0.045C5.133,0.807,5.115,0.773,5.115,0.727c0-0.045,0.018-0.086,0.051-0.113
				c0.033-0.031,0.079-0.047,0.13-0.047c0.025,0,0.051,0.006,0.073,0.014C5.395,0.582,5.418,0.598,5.443,0.615"/>
		</g>
		<g>
			<defs>
				<rect id="SVGID_13_" y="0.457" width="15" height="0.664"/>
			</defs>
			<clipPath id="SVGID_14_">
				<use xlink:href="#SVGID_13_"  overflow="visible"/>
			</clipPath>
			<path clip-path="url(#SVGID_14_)" d="M5.857,0.574h0.279v0.028H6.089c-0.021,0-0.036,0.003-0.04,0.008
				c-0.006,0.005-0.008,0.015-0.008,0.03v0.404c0,0.016,0.002,0.025,0.008,0.031C6.057,1.08,6.066,1.083,6.084,1.083h0.053v0.028
				H5.857V1.083h0.054c0.018,0,0.03-0.003,0.036-0.007C5.951,1.07,5.954,1.061,5.954,1.045V0.641c0-0.016-0.003-0.025-0.007-0.027
				C5.939,0.607,5.924,0.605,5.903,0.605H5.855V0.574H5.857z"/>
		</g>
		<g>
			<defs>
				<rect id="SVGID_15_" y="0.457" width="15" height="0.664"/>
			</defs>
			<clipPath id="SVGID_16_">
				<use xlink:href="#SVGID_15_"  overflow="visible"/>
			</clipPath>
			<path clip-path="url(#SVGID_16_)" d="M6.473,0.574h0.494l0.012,0.201H6.951C6.934,0.656,6.883,0.598,6.803,0.598
				c-0.015,0-0.027,0.002-0.032,0.008C6.766,0.61,6.76,0.617,6.76,0.628v0.427c0,0.008,0.003,0.016,0.008,0.021
				C6.773,1.08,6.783,1.08,6.796,1.08h0.062v0.028H6.574V1.08h0.068c0.011,0,0.016-0.002,0.021-0.004
				C6.668,1.07,6.672,1.065,6.672,1.061V0.628c0-0.011-0.004-0.015-0.011-0.021C6.656,0.603,6.646,0.6,6.631,0.6
				c-0.041,0-0.074,0.016-0.1,0.051C6.508,0.679,6.493,0.723,6.482,0.781H6.453L6.473,0.574z"/>
		</g>
		<g>
			<defs>
				<rect id="SVGID_17_" y="0.457" width="15" height="0.664"/>
			</defs>
			<clipPath id="SVGID_18_">
				<use xlink:href="#SVGID_17_"  overflow="visible"/>
			</clipPath>
			<path clip-path="url(#SVGID_18_)" d="M7.23,0.574h0.48l0.013,0.182H7.695c-0.01-0.057-0.027-0.098-0.051-0.12
				C7.622,0.613,7.592,0.603,7.553,0.603H7.434c-0.01,0-0.018,0.003-0.022,0.008S7.403,0.623,7.403,0.631v0.19h0.051
				c0.028,0,0.051-0.008,0.069-0.025C7.541,0.777,7.551,0.75,7.551,0.715h0.027v0.246H7.551C7.549,0.92,7.541,0.89,7.523,0.872
				C7.505,0.854,7.482,0.847,7.451,0.847H7.403v0.214c0,0.008,0.003,0.012,0.008,0.018c0.005,0.005,0.015,0.005,0.03,0.005h0.094
				c0.102,0,0.16-0.059,0.176-0.173h0.031L7.731,1.108H7.23V1.08h0.041c0.016,0,0.027-0.002,0.033-0.008
				c0.008-0.004,0.01-0.012,0.01-0.02V0.628c0-0.011-0.002-0.015-0.008-0.021C7.302,0.603,7.291,0.6,7.279,0.6H7.229V0.574H7.23z"/>
		</g>
		<g>
			<defs>
				<rect id="SVGID_19_" y="0.457" width="15" height="0.664"/>
			</defs>
			<clipPath id="SVGID_20_">
				<use xlink:href="#SVGID_19_"  overflow="visible"/>
			</clipPath>
			<path clip-path="url(#SVGID_20_)" d="M8.352,0.615L8.39,0.569h0.03l0.003,0.196H8.395c-0.018-0.059-0.043-0.104-0.076-0.13
				c-0.033-0.028-0.07-0.041-0.114-0.041c-0.036,0-0.065,0.011-0.089,0.028C8.092,0.643,8.08,0.666,8.08,0.691
				c0,0.018,0.005,0.033,0.012,0.046C8.1,0.75,8.115,0.76,8.131,0.768c0.015,0.008,0.051,0.018,0.099,0.025
				c0.069,0.014,0.114,0.025,0.143,0.039C8.4,0.844,8.42,0.861,8.434,0.883c0.012,0.02,0.02,0.043,0.02,0.07
				c0,0.049-0.018,0.09-0.056,0.119C8.359,1.104,8.313,1.121,8.255,1.121c-0.063,0-0.116-0.018-0.163-0.053L8.047,1.119H8.016V0.912
				h0.031C8.06,0.969,8.085,1.015,8.123,1.047C8.164,1.08,8.207,1.096,8.258,1.096c0.041,0,0.074-0.01,0.1-0.03
				S8.395,1.02,8.395,0.989c0-0.019-0.005-0.033-0.015-0.046C8.369,0.931,8.354,0.92,8.334,0.91C8.313,0.9,8.273,0.89,8.212,0.877
				C8.146,0.864,8.1,0.847,8.074,0.832C8.041,0.807,8.023,0.773,8.023,0.727c0-0.045,0.018-0.086,0.051-0.113
				c0.033-0.031,0.079-0.047,0.13-0.047c0.025,0,0.051,0.006,0.073,0.014C8.303,0.582,8.328,0.598,8.352,0.615"/>
		</g>
		<g>
			<defs>
				<rect id="SVGID_21_" y="0.457" width="15" height="0.664"/>
			</defs>
			<clipPath id="SVGID_22_">
				<use xlink:href="#SVGID_21_"  overflow="visible"/>
			</clipPath>
			<path clip-path="url(#SVGID_22_)" d="M9.687,0.521l0.028-0.061H9.74l0.01,0.254H9.723C9.704,0.643,9.682,0.59,9.653,0.557
				C9.62,0.514,9.58,0.493,9.531,0.493c-0.051,0-0.092,0.022-0.125,0.071S9.358,0.691,9.358,0.807c0,0.096,0.019,0.167,0.056,0.218
				c0.031,0.044,0.074,0.063,0.133,0.063c0.048,0,0.092-0.018,0.125-0.051c0.032-0.033,0.055-0.084,0.065-0.15h0.028
				C9.758,0.963,9.732,1.021,9.691,1.062S9.598,1.124,9.537,1.124c-0.052,0-0.098-0.013-0.141-0.041
				C9.354,1.058,9.32,1.018,9.295,0.969C9.27,0.918,9.257,0.864,9.257,0.803c0-0.062,0.013-0.121,0.038-0.178
				C9.32,0.569,9.354,0.529,9.396,0.501c0.041-0.028,0.084-0.04,0.133-0.04c0.025,0,0.051,0.004,0.076,0.015
				C9.631,0.48,9.656,0.498,9.687,0.521"/>
		</g>
		<g>
			<defs>
				<rect id="SVGID_23_" y="0.457" width="15" height="0.664"/>
			</defs>
			<clipPath id="SVGID_24_">
				<use xlink:href="#SVGID_23_"  overflow="visible"/>
			</clipPath>
			<path clip-path="url(#SVGID_24_)" d="M10.454,0.59c-0.054,0-0.097,0.021-0.13,0.059s-0.051,0.102-0.051,0.19
				c0,0.097,0.018,0.163,0.051,0.198s0.076,0.057,0.127,0.057c0.036,0,0.066-0.008,0.092-0.025s0.049-0.044,0.064-0.079
				c0.015-0.036,0.022-0.084,0.022-0.143c0-0.063-0.008-0.114-0.022-0.149c-0.016-0.036-0.036-0.064-0.064-0.082
				C10.518,0.6,10.487,0.59,10.454,0.59 M10.447,0.564c0.051,0,0.099,0.013,0.145,0.035c0.045,0.023,0.078,0.057,0.104,0.1
				s0.039,0.092,0.039,0.145c0,0.054-0.014,0.102-0.039,0.146c-0.025,0.043-0.061,0.076-0.104,0.099
				c-0.043,0.023-0.092,0.036-0.143,0.036c-0.049,0-0.094-0.013-0.137-0.036c-0.044-0.022-0.077-0.056-0.103-0.102
				c-0.025-0.043-0.038-0.092-0.038-0.145c0-0.054,0.013-0.1,0.038-0.143s0.059-0.076,0.103-0.1
				C10.355,0.574,10.4,0.564,10.447,0.564"/>
		</g>
		<g>
			<defs>
				<rect id="SVGID_25_" y="0.457" width="15" height="0.664"/>
			</defs>
			<clipPath id="SVGID_26_">
				<use xlink:href="#SVGID_25_"  overflow="visible"/>
			</clipPath>
			<path clip-path="url(#SVGID_26_)" d="M11.012,0.574h0.203l0.18,0.422l0.168-0.422h0.206v0.028h-0.051
				c-0.018,0-0.03,0.003-0.036,0.008c-0.004,0.005-0.01,0.013-0.01,0.022v0.422c0,0.008,0.003,0.016,0.01,0.021
				c0.008,0.004,0.021,0.007,0.039,0.007h0.045v0.028h-0.277V1.083h0.052c0.015,0,0.025-0.003,0.032-0.007
				c0.008-0.006,0.011-0.011,0.011-0.019V0.605l-0.2,0.508h-0.028l-0.216-0.506v0.389c0,0.023,0.002,0.041,0.01,0.051
				c0.008,0.011,0.016,0.021,0.027,0.025c0.014,0.006,0.033,0.011,0.062,0.011v0.028h-0.229V1.083
				c0.039-0.003,0.064-0.011,0.077-0.021c0.013-0.012,0.021-0.033,0.021-0.063V0.631c0-0.01-0.003-0.016-0.011-0.021
				c-0.005-0.005-0.018-0.005-0.035-0.005h-0.052V0.574H11.012z"/>
		</g>
		<g>
			<defs>
				<rect id="SVGID_27_" y="0.457" width="15" height="0.664"/>
			</defs>
			<clipPath id="SVGID_28_">
				<use xlink:href="#SVGID_27_"  overflow="visible"/>
			</clipPath>
			<path clip-path="url(#SVGID_28_)" d="M12.16,0.842h0.082c0.053,0,0.088-0.01,0.111-0.028c0.023-0.021,0.035-0.051,0.035-0.094
				c0-0.03-0.005-0.054-0.016-0.071c-0.01-0.016-0.025-0.027-0.045-0.035c-0.021-0.008-0.054-0.014-0.1-0.014
				c-0.03,0-0.048,0.003-0.059,0.008c-0.008,0.006-0.012,0.014-0.012,0.025v0.209H12.16z M11.975,0.574h0.3
				c0.069,0,0.12,0.014,0.155,0.041s0.053,0.061,0.053,0.107c0,0.045-0.015,0.076-0.048,0.099c-0.046,0.03-0.102,0.048-0.167,0.048
				h-0.109v0.184c0,0.01,0.002,0.018,0.007,0.023c0.008,0.004,0.019,0.007,0.03,0.007h0.069v0.028h-0.29V1.083h0.061
				c0.014,0,0.021-0.003,0.025-0.005c0.006-0.006,0.008-0.01,0.008-0.018V0.633c0-0.01-0.002-0.018-0.01-0.022
				s-0.021-0.008-0.041-0.008h-0.043V0.574z"/>
		</g>
		<g>
			<defs>
				<rect id="SVGID_29_" y="0.457" width="15" height="0.664"/>
			</defs>
			<clipPath id="SVGID_30_">
				<use xlink:href="#SVGID_29_"  overflow="visible"/>
			</clipPath>
			<path clip-path="url(#SVGID_30_)" d="M12.981,0.666l-0.109,0.239h0.214L12.981,0.666z M12.992,0.564h0.027l0.219,0.488
				c0.008,0.02,0.027,0.03,0.053,0.03h0.019v0.028h-0.241V1.083h0.02c0.025,0,0.043-0.003,0.054-0.007
				c0.007-0.004,0.011-0.008,0.011-0.016c0-0.006,0-0.008-0.004-0.014l-0.051-0.113h-0.238l-0.027,0.065
				c-0.008,0.019-0.011,0.03-0.011,0.041c0,0.013,0.005,0.022,0.018,0.03s0.03,0.013,0.054,0.013h0.02v0.028h-0.221V1.083
				c0.023,0,0.043-0.005,0.057-0.013c0.012-0.01,0.025-0.025,0.037-0.051L12.992,0.564z"/>
		</g>
		<g>
			<defs>
				<rect id="SVGID_31_" y="0.457" width="15" height="0.664"/>
			</defs>
			<clipPath id="SVGID_32_">
				<use xlink:href="#SVGID_31_"  overflow="visible"/>
			</clipPath>
			<path clip-path="url(#SVGID_32_)" d="M13.559,0.574h0.145l0.366,0.42V0.689c0-0.031-0.007-0.054-0.022-0.068
				C14.031,0.607,14.012,0.6,13.98,0.6V0.572h0.213V0.6c-0.021,0-0.037,0.003-0.048,0.008c-0.01,0.006-0.021,0.016-0.028,0.028
				c-0.007,0.013-0.012,0.028-0.012,0.046v0.424h-0.039l-0.381-0.434v0.322c0,0.027,0.008,0.051,0.025,0.066
				s0.043,0.022,0.079,0.022v0.028h-0.231V1.083c0.027,0,0.051-0.011,0.068-0.025s0.025-0.036,0.025-0.059v-0.36l-0.008-0.008
				c-0.012-0.014-0.022-0.021-0.027-0.023c-0.008-0.002-0.018-0.005-0.031-0.005h-0.027V0.574z"/>
		</g>
		<g>
			<defs>
				<rect id="SVGID_33_" y="0.457" width="15" height="0.664"/>
			</defs>
			<clipPath id="SVGID_34_">
				<use xlink:href="#SVGID_33_"  overflow="visible"/>
			</clipPath>
			<path clip-path="url(#SVGID_34_)" d="M14.395,0.574h0.268v0.028h-0.031c-0.025,0-0.04,0.003-0.048,0.005
				c-0.008,0.003-0.011,0.008-0.011,0.016c0,0.005,0.003,0.013,0.006,0.018l0.154,0.211l0.112-0.18
				c0.005-0.008,0.008-0.019,0.008-0.025c0-0.014-0.005-0.023-0.013-0.031c-0.01-0.008-0.023-0.01-0.041-0.01h-0.027V0.577h0.23
				v0.028c-0.025,0-0.048,0.005-0.062,0.012c-0.016,0.008-0.031,0.023-0.044,0.047l-0.14,0.226v0.171c0,0.01,0.002,0.016,0.008,0.02
				c0.008,0.006,0.02,0.008,0.035,0.008h0.054v0.028h-0.28V1.088h0.057c0.016,0,0.025-0.002,0.033-0.008
				c0.008-0.004,0.01-0.01,0.01-0.02V0.895l-0.188-0.259c-0.008-0.011-0.018-0.019-0.028-0.022c-0.011-0.006-0.03-0.008-0.056-0.008
				V0.574H14.395z"/>
		</g>
	</g>
</g>
</svg>
